M48
;DRILL file {KiCad (5.0-dev-4069-g322ce84fb)} date 04/09/18 14:07:17
;FORMAT={-:-/ absolute / inch / decimal}
FMAT,2
INCH,TZ
T1C0.0118
T2C0.0236
T3C0.0256
T4C0.0335
T5C0.0394
%
G90
G05
M72
T1
X4.2323Y-4.0866
X4.3661Y-3.9921
X4.378Y-4.5433
X4.378Y-4.6693
X4.3819Y-4.2835
X4.382Y-4.1866
X4.3858Y-4.0866
X4.4882Y-4.5433
X4.5197Y-3.9921
X4.5197Y-4.185
X4.5236Y-4.378
X4.5236Y-4.4764
X4.5551Y-4.5591
X4.5551Y-4.5945
X4.6654Y-4.0984
X4.6929Y-4.2913
X4.6969Y-4.2283
X4.7244Y-4.1339
X4.7244Y-4.3543
X4.8307Y-4.3701
X4.8307Y-4.3976
X4.8307Y-4.5669
X4.8819Y-4.1181
X4.8839Y-4.4646
X4.9606Y-4.6457
X5.0039Y-4.4646
X5.0236Y-4.3563
X5.0669Y-4.2618
X5.0669Y-4.3366
X5.126Y-4.2087
X5.1496Y-4.0945
X5.2677Y-4.2362
X5.2795Y-4.3622
X5.311Y-4.1693
X5.4213Y-4.0866
X5.4252Y-4.3622
X5.435Y-4.2362
X5.437Y-4.4882
X5.4488Y-4.5236
X5.4528Y-4.6457
X5.4803Y-4.2323
X5.4803Y-4.2638
X5.5276Y-4.063
T3
X5.5118Y-4.
X5.5618Y-4.
X5.6118Y-4.
X5.6618Y-4.
T4
X5.5433Y-4.2323
X5.5433Y-4.4291
T5
X4.0102Y-4.1307
X4.0102Y-4.2307
X4.0102Y-4.3307
X4.0102Y-4.4307
X4.0102Y-4.5307
X4.1102Y-4.1307
X4.1102Y-4.2307
X4.1102Y-4.3307
X4.1102Y-4.4307
X4.1102Y-4.5307
T2
X5.6358Y-4.1929G85X5.6634Y-4.1929
G05
X5.6634Y-4.4685G85X5.6358Y-4.4685
G05
T0
M30
