G04 #@! TF.GenerationSoftware,KiCad,Pcbnew,(5.0-dev-4069-g322ce84fb)*
G04 #@! TF.CreationDate,2018-04-09T14:07:30+08:00*
G04 #@! TF.ProjectId,ZZQDap,5A5A514461702E6B696361645F706362,rev?*
G04 #@! TF.SameCoordinates,Original*
G04 #@! TF.FileFunction,Paste,Top*
G04 #@! TF.FilePolarity,Positive*
%FSLAX46Y46*%
G04 Gerber Fmt 4.6, Leading zero omitted, Abs format (unit mm)*
G04 Created by KiCad (PCBNEW (5.0-dev-4069-g322ce84fb)) date 04/09/18 14:07:30*
%MOMM*%
%LPD*%
G01*
G04 APERTURE LIST*
%ADD10R,0.800000X0.750000*%
%ADD11R,0.800000X0.800000*%
%ADD12R,1.900000X1.500000*%
%ADD13R,1.350000X0.400000*%
%ADD14R,0.500000X0.900000*%
%ADD15R,1.060000X0.650000*%
%ADD16R,0.250000X1.300000*%
%ADD17R,1.300000X0.250000*%
%ADD18R,1.600000X0.500000*%
G04 APERTURE END LIST*
D10*
X136050000Y-118000000D03*
X137550000Y-118000000D03*
X133150000Y-118000000D03*
X131650000Y-118000000D03*
X135250000Y-110800000D03*
X136750000Y-110800000D03*
X113950000Y-103800000D03*
X112450000Y-103800000D03*
X130750000Y-103000000D03*
X129250000Y-103000000D03*
X122750000Y-103000000D03*
X121250000Y-103000000D03*
X112450000Y-116077852D03*
X113950000Y-116077852D03*
X127050000Y-118000000D03*
X128550000Y-118000000D03*
D11*
X102400000Y-101400000D03*
X104000000Y-101400000D03*
X104000000Y-118600000D03*
X102400000Y-118600000D03*
X141800000Y-116200000D03*
X143400000Y-116200000D03*
D12*
X143500000Y-111000000D03*
D13*
X140800000Y-110000000D03*
X140800000Y-109350000D03*
X140800000Y-108700000D03*
X140800000Y-111300000D03*
X140800000Y-110650000D03*
D12*
X143500000Y-109000000D03*
D14*
X108500000Y-116142852D03*
X110000000Y-116142852D03*
X110000000Y-101400000D03*
X108500000Y-101400000D03*
X108500000Y-118600000D03*
X110000000Y-118600000D03*
X141850000Y-118600000D03*
X143350000Y-118600000D03*
X110000000Y-113685710D03*
X108500000Y-113685710D03*
X110000000Y-111228568D03*
X108500000Y-111228568D03*
X108500000Y-108771426D03*
X110000000Y-108771426D03*
X110000000Y-106314284D03*
X108500000Y-106314284D03*
X112450000Y-113685710D03*
X113950000Y-113685710D03*
X113950000Y-111228568D03*
X112450000Y-111228568D03*
X112450000Y-108771426D03*
X113950000Y-108771426D03*
X113950000Y-106314284D03*
X112450000Y-106314284D03*
X136750000Y-103800000D03*
X135250000Y-103800000D03*
X108500000Y-103857142D03*
X110000000Y-103857142D03*
X125250000Y-103000000D03*
X126750000Y-103000000D03*
D15*
X134900000Y-114950000D03*
X134900000Y-113050000D03*
X137100000Y-113050000D03*
X137100000Y-114000000D03*
X137100000Y-114950000D03*
X134900000Y-107600000D03*
X134900000Y-108550000D03*
X134900000Y-106650000D03*
X137100000Y-106650000D03*
X137100000Y-107600000D03*
X137100000Y-108550000D03*
D16*
X123050000Y-106050000D03*
X123550000Y-106050000D03*
X124050000Y-106050000D03*
X124550000Y-106050000D03*
X125050000Y-106050000D03*
X125550000Y-106050000D03*
X126050000Y-106050000D03*
X126550000Y-106050000D03*
X127050000Y-106050000D03*
X127550000Y-106050000D03*
X128050000Y-106050000D03*
X128550000Y-106050000D03*
D17*
X130150000Y-107650000D03*
X130150000Y-108150000D03*
X130150000Y-108650000D03*
X130150000Y-109150000D03*
X130150000Y-109650000D03*
X130150000Y-110150000D03*
X130150000Y-110650000D03*
X130150000Y-111150000D03*
X130150000Y-111650000D03*
X130150000Y-112150000D03*
X130150000Y-112650000D03*
X130150000Y-113150000D03*
D16*
X128550000Y-114750000D03*
X128050000Y-114750000D03*
X127550000Y-114750000D03*
X127050000Y-114750000D03*
X126550000Y-114750000D03*
X126050000Y-114750000D03*
X125550000Y-114750000D03*
X125050000Y-114750000D03*
X124550000Y-114750000D03*
X124050000Y-114750000D03*
X123550000Y-114750000D03*
X123050000Y-114750000D03*
D17*
X121450000Y-113150000D03*
X121450000Y-112650000D03*
X121450000Y-112150000D03*
X121450000Y-111650000D03*
X121450000Y-111150000D03*
X121450000Y-110650000D03*
X121450000Y-110150000D03*
X121450000Y-109650000D03*
X121450000Y-109150000D03*
X121450000Y-108650000D03*
X121450000Y-108150000D03*
X121450000Y-107650000D03*
D18*
X117800000Y-110200000D03*
X117800000Y-109000000D03*
X117800000Y-107800000D03*
M02*
