G04 #@! TF.GenerationSoftware,KiCad,Pcbnew,(5.0-dev-4069-g322ce84fb)*
G04 #@! TF.CreationDate,2018-04-09T14:07:30+08:00*
G04 #@! TF.ProjectId,ZZQDap,5A5A514461702E6B696361645F706362,rev?*
G04 #@! TF.SameCoordinates,Original*
G04 #@! TF.FileFunction,Legend,Bot*
G04 #@! TF.FilePolarity,Positive*
%FSLAX46Y46*%
G04 Gerber Fmt 4.6, Leading zero omitted, Abs format (unit mm)*
G04 Created by KiCad (PCBNEW (5.0-dev-4069-g322ce84fb)) date 04/09/18 14:07:30*
%MOMM*%
%LPD*%
G01*
G04 APERTURE LIST*
%ADD10C,0.300000*%
%ADD11C,0.010000*%
G04 APERTURE END LIST*
D10*
X143442857Y-117642857D02*
X142814285Y-117642857D01*
X143442857Y-118442857D01*
X142814285Y-118442857D01*
X142357142Y-118442857D02*
X142357142Y-117242857D01*
X141842857Y-118442857D02*
X141842857Y-117814285D01*
X141900000Y-117700000D01*
X142014285Y-117642857D01*
X142185714Y-117642857D01*
X142300000Y-117700000D01*
X142357142Y-117757142D01*
X140757142Y-118442857D02*
X140757142Y-117814285D01*
X140814285Y-117700000D01*
X140928571Y-117642857D01*
X141157142Y-117642857D01*
X141271428Y-117700000D01*
X140757142Y-118385714D02*
X140871428Y-118442857D01*
X141157142Y-118442857D01*
X141271428Y-118385714D01*
X141328571Y-118271428D01*
X141328571Y-118157142D01*
X141271428Y-118042857D01*
X141157142Y-117985714D01*
X140871428Y-117985714D01*
X140757142Y-117928571D01*
X140185714Y-117642857D02*
X140185714Y-118442857D01*
X140185714Y-117757142D02*
X140128571Y-117700000D01*
X140014285Y-117642857D01*
X139842857Y-117642857D01*
X139728571Y-117700000D01*
X139671428Y-117814285D01*
X139671428Y-118442857D01*
X138585714Y-117642857D02*
X138585714Y-118614285D01*
X138642857Y-118728571D01*
X138700000Y-118785714D01*
X138814285Y-118842857D01*
X138985714Y-118842857D01*
X139100000Y-118785714D01*
X138585714Y-118385714D02*
X138700000Y-118442857D01*
X138928571Y-118442857D01*
X139042857Y-118385714D01*
X139100000Y-118328571D01*
X139157142Y-118214285D01*
X139157142Y-117871428D01*
X139100000Y-117757142D01*
X139042857Y-117700000D01*
X138928571Y-117642857D01*
X138700000Y-117642857D01*
X138585714Y-117700000D01*
X138128571Y-117642857D02*
X137500000Y-117642857D01*
X138128571Y-118442857D01*
X137500000Y-118442857D01*
X136528571Y-117642857D02*
X136528571Y-118842857D01*
X136528571Y-118385714D02*
X136642857Y-118442857D01*
X136871428Y-118442857D01*
X136985714Y-118385714D01*
X137042857Y-118328571D01*
X137100000Y-118214285D01*
X137100000Y-117871428D01*
X137042857Y-117757142D01*
X136985714Y-117700000D01*
X136871428Y-117642857D01*
X136642857Y-117642857D01*
X136528571Y-117700000D01*
X136071428Y-117242857D02*
X135271428Y-117242857D01*
X135785714Y-118442857D01*
X134185714Y-118442857D02*
X134871428Y-118442857D01*
X134528571Y-118442857D02*
X134528571Y-117242857D01*
X134642857Y-117414285D01*
X134757142Y-117528571D01*
X134871428Y-117585714D01*
X132928571Y-117871428D02*
X132985714Y-117814285D01*
X133099999Y-117757142D01*
X133214285Y-117757142D01*
X133328571Y-117814285D01*
X133385714Y-117871428D01*
X133442857Y-117985714D01*
X133442857Y-118100000D01*
X133385714Y-118214285D01*
X133328571Y-118271428D01*
X133214285Y-118328571D01*
X133099999Y-118328571D01*
X132985714Y-118271428D01*
X132928571Y-118214285D01*
X132928571Y-117757142D02*
X132928571Y-118214285D01*
X132871428Y-118271428D01*
X132814285Y-118271428D01*
X132699999Y-118214285D01*
X132642857Y-118100000D01*
X132642857Y-117814285D01*
X132757142Y-117642857D01*
X132928571Y-117528571D01*
X133157142Y-117471428D01*
X133385714Y-117528571D01*
X133557142Y-117642857D01*
X133671428Y-117814285D01*
X133728571Y-118042857D01*
X133671428Y-118271428D01*
X133557142Y-118442857D01*
X133385714Y-118557142D01*
X133157142Y-118614285D01*
X132928571Y-118557142D01*
X132757142Y-118442857D01*
X132128571Y-118442857D02*
X132128571Y-117242857D01*
X131614285Y-118442857D02*
X131614285Y-117814285D01*
X131671428Y-117700000D01*
X131785714Y-117642857D01*
X131957142Y-117642857D01*
X132071428Y-117700000D01*
X132128571Y-117757142D01*
X130871428Y-118442857D02*
X130985714Y-118385714D01*
X131042857Y-118328571D01*
X131099999Y-118214285D01*
X131099999Y-117871428D01*
X131042857Y-117757142D01*
X130985714Y-117700000D01*
X130871428Y-117642857D01*
X130699999Y-117642857D01*
X130585714Y-117700000D01*
X130528571Y-117757142D01*
X130471428Y-117871428D01*
X130471428Y-118214285D01*
X130528571Y-118328571D01*
X130585714Y-118385714D01*
X130699999Y-118442857D01*
X130871428Y-118442857D01*
X130128571Y-117642857D02*
X129671428Y-117642857D01*
X129957142Y-117242857D02*
X129957142Y-118271428D01*
X129899999Y-118385714D01*
X129785714Y-118442857D01*
X129671428Y-118442857D01*
X129271428Y-118442857D02*
X129271428Y-117642857D01*
X129271428Y-117757142D02*
X129214285Y-117700000D01*
X129099999Y-117642857D01*
X128928571Y-117642857D01*
X128814285Y-117700000D01*
X128757142Y-117814285D01*
X128757142Y-118442857D01*
X128757142Y-117814285D02*
X128699999Y-117700000D01*
X128585714Y-117642857D01*
X128414285Y-117642857D01*
X128299999Y-117700000D01*
X128242857Y-117814285D01*
X128242857Y-118442857D01*
X127157142Y-118442857D02*
X127157142Y-117814285D01*
X127214285Y-117700000D01*
X127328571Y-117642857D01*
X127557142Y-117642857D01*
X127671428Y-117700000D01*
X127157142Y-118385714D02*
X127271428Y-118442857D01*
X127557142Y-118442857D01*
X127671428Y-118385714D01*
X127728571Y-118271428D01*
X127728571Y-118157142D01*
X127671428Y-118042857D01*
X127557142Y-117985714D01*
X127271428Y-117985714D01*
X127157142Y-117928571D01*
X126585714Y-118442857D02*
X126585714Y-117642857D01*
X126585714Y-117242857D02*
X126642857Y-117300000D01*
X126585714Y-117357142D01*
X126528571Y-117300000D01*
X126585714Y-117242857D01*
X126585714Y-117357142D01*
X125842857Y-118442857D02*
X125957142Y-118385714D01*
X126014285Y-118271428D01*
X126014285Y-117242857D01*
X125385714Y-118328571D02*
X125328571Y-118385714D01*
X125385714Y-118442857D01*
X125442857Y-118385714D01*
X125385714Y-118328571D01*
X125385714Y-118442857D01*
X124300000Y-118385714D02*
X124414285Y-118442857D01*
X124642857Y-118442857D01*
X124757142Y-118385714D01*
X124814285Y-118328571D01*
X124871428Y-118214285D01*
X124871428Y-117871428D01*
X124814285Y-117757142D01*
X124757142Y-117700000D01*
X124642857Y-117642857D01*
X124414285Y-117642857D01*
X124300000Y-117700000D01*
X123614285Y-118442857D02*
X123728571Y-118385714D01*
X123785714Y-118328571D01*
X123842857Y-118214285D01*
X123842857Y-117871428D01*
X123785714Y-117757142D01*
X123728571Y-117700000D01*
X123614285Y-117642857D01*
X123442857Y-117642857D01*
X123328571Y-117700000D01*
X123271428Y-117757142D01*
X123214285Y-117871428D01*
X123214285Y-118214285D01*
X123271428Y-118328571D01*
X123328571Y-118385714D01*
X123442857Y-118442857D01*
X123614285Y-118442857D01*
X122700000Y-118442857D02*
X122700000Y-117642857D01*
X122700000Y-117757142D02*
X122642857Y-117700000D01*
X122528571Y-117642857D01*
X122357142Y-117642857D01*
X122242857Y-117700000D01*
X122185714Y-117814285D01*
X122185714Y-118442857D01*
X122185714Y-117814285D02*
X122128571Y-117700000D01*
X122014285Y-117642857D01*
X121842857Y-117642857D01*
X121728571Y-117700000D01*
X121671428Y-117814285D01*
X121671428Y-118442857D01*
X114600000Y-115378571D02*
X115000000Y-114664285D01*
X115285714Y-115378571D02*
X115285714Y-113878571D01*
X114828571Y-113878571D01*
X114714285Y-113950000D01*
X114657142Y-114021428D01*
X114600000Y-114164285D01*
X114600000Y-114378571D01*
X114657142Y-114521428D01*
X114714285Y-114592857D01*
X114828571Y-114664285D01*
X115285714Y-114664285D01*
X114200000Y-113878571D02*
X113400000Y-115378571D01*
X113400000Y-113878571D02*
X114200000Y-115378571D01*
X110871428Y-114078571D02*
X110185714Y-114078571D01*
X110528571Y-115578571D02*
X110528571Y-114078571D01*
X109785714Y-115578571D02*
X109785714Y-114078571D01*
X109500000Y-114078571D01*
X109328571Y-114150000D01*
X109214285Y-114292857D01*
X109157142Y-114435714D01*
X109100000Y-114721428D01*
X109100000Y-114935714D01*
X109157142Y-115221428D01*
X109214285Y-115364285D01*
X109328571Y-115507142D01*
X109500000Y-115578571D01*
X109785714Y-115578571D01*
X108357142Y-114078571D02*
X108128571Y-114078571D01*
X108014285Y-114150000D01*
X107900000Y-114292857D01*
X107842857Y-114578571D01*
X107842857Y-115078571D01*
X107900000Y-115364285D01*
X108014285Y-115507142D01*
X108128571Y-115578571D01*
X108357142Y-115578571D01*
X108471428Y-115507142D01*
X108585714Y-115364285D01*
X108642857Y-115078571D01*
X108642857Y-114578571D01*
X108585714Y-114292857D01*
X108471428Y-114150000D01*
X108357142Y-114078571D01*
X115214285Y-111578571D02*
X114528571Y-111578571D01*
X114871428Y-113078571D02*
X114871428Y-111578571D01*
X114242857Y-111578571D02*
X113442857Y-113078571D01*
X113442857Y-111578571D02*
X114242857Y-113078571D01*
X110842857Y-113178571D02*
X111242857Y-112464285D01*
X111528571Y-113178571D02*
X111528571Y-111678571D01*
X111071428Y-111678571D01*
X110957142Y-111750000D01*
X110900000Y-111821428D01*
X110842857Y-111964285D01*
X110842857Y-112178571D01*
X110900000Y-112321428D01*
X110957142Y-112392857D01*
X111071428Y-112464285D01*
X111528571Y-112464285D01*
X110328571Y-112392857D02*
X109928571Y-112392857D01*
X109757142Y-113178571D02*
X110328571Y-113178571D01*
X110328571Y-111678571D01*
X109757142Y-111678571D01*
X109300000Y-113107142D02*
X109128571Y-113178571D01*
X108842857Y-113178571D01*
X108728571Y-113107142D01*
X108671428Y-113035714D01*
X108614285Y-112892857D01*
X108614285Y-112750000D01*
X108671428Y-112607142D01*
X108728571Y-112535714D01*
X108842857Y-112464285D01*
X109071428Y-112392857D01*
X109185714Y-112321428D01*
X109242857Y-112250000D01*
X109300000Y-112107142D01*
X109300000Y-111964285D01*
X109242857Y-111821428D01*
X109185714Y-111750000D01*
X109071428Y-111678571D01*
X108785714Y-111678571D01*
X108614285Y-111750000D01*
X108100000Y-112392857D02*
X107700000Y-112392857D01*
X107528571Y-113178571D02*
X108100000Y-113178571D01*
X108100000Y-111678571D01*
X107528571Y-111678571D01*
X107185714Y-111678571D02*
X106500000Y-111678571D01*
X106842857Y-113178571D02*
X106842857Y-111678571D01*
X117514285Y-108978571D02*
X116585714Y-108978571D01*
X117085714Y-109550000D01*
X116871428Y-109550000D01*
X116728571Y-109621428D01*
X116657142Y-109692857D01*
X116585714Y-109835714D01*
X116585714Y-110192857D01*
X116657142Y-110335714D01*
X116728571Y-110407142D01*
X116871428Y-110478571D01*
X117300000Y-110478571D01*
X117442857Y-110407142D01*
X117514285Y-110335714D01*
X115942857Y-110335714D02*
X115871428Y-110407142D01*
X115942857Y-110478571D01*
X116014285Y-110407142D01*
X115942857Y-110335714D01*
X115942857Y-110478571D01*
X115371428Y-108978571D02*
X114442857Y-108978571D01*
X114942857Y-109550000D01*
X114728571Y-109550000D01*
X114585714Y-109621428D01*
X114514285Y-109692857D01*
X114442857Y-109835714D01*
X114442857Y-110192857D01*
X114514285Y-110335714D01*
X114585714Y-110407142D01*
X114728571Y-110478571D01*
X115157142Y-110478571D01*
X115300000Y-110407142D01*
X115371428Y-110335714D01*
X114014285Y-108978571D02*
X113514285Y-110478571D01*
X113014285Y-108978571D01*
X111642857Y-110607142D02*
X111471428Y-110678571D01*
X111185714Y-110678571D01*
X111071428Y-110607142D01*
X111014285Y-110535714D01*
X110957142Y-110392857D01*
X110957142Y-110250000D01*
X111014285Y-110107142D01*
X111071428Y-110035714D01*
X111185714Y-109964285D01*
X111414285Y-109892857D01*
X111528571Y-109821428D01*
X111585714Y-109750000D01*
X111642857Y-109607142D01*
X111642857Y-109464285D01*
X111585714Y-109321428D01*
X111528571Y-109250000D01*
X111414285Y-109178571D01*
X111128571Y-109178571D01*
X110957142Y-109250000D01*
X110557142Y-109178571D02*
X110271428Y-110678571D01*
X110042857Y-109607142D01*
X109814285Y-110678571D01*
X109528571Y-109178571D01*
X109071428Y-110678571D02*
X109071428Y-109178571D01*
X108785714Y-109178571D01*
X108614285Y-109250000D01*
X108500000Y-109392857D01*
X108442857Y-109535714D01*
X108385714Y-109821428D01*
X108385714Y-110035714D01*
X108442857Y-110321428D01*
X108500000Y-110464285D01*
X108614285Y-110607142D01*
X108785714Y-110678571D01*
X109071428Y-110678571D01*
X107871428Y-110678571D02*
X107871428Y-109178571D01*
X107071428Y-109178571D02*
X106842857Y-109178571D01*
X106728571Y-109250000D01*
X106614285Y-109392857D01*
X106557142Y-109678571D01*
X106557142Y-110178571D01*
X106614285Y-110464285D01*
X106728571Y-110607142D01*
X106842857Y-110678571D01*
X107071428Y-110678571D01*
X107185714Y-110607142D01*
X107300000Y-110464285D01*
X107357142Y-110178571D01*
X107357142Y-109678571D01*
X107300000Y-109392857D01*
X107185714Y-109250000D01*
X107071428Y-109178571D01*
X114628571Y-106478571D02*
X115200000Y-106478571D01*
X115257142Y-107192857D01*
X115200000Y-107121428D01*
X115085714Y-107050000D01*
X114800000Y-107050000D01*
X114685714Y-107121428D01*
X114628571Y-107192857D01*
X114571428Y-107335714D01*
X114571428Y-107692857D01*
X114628571Y-107835714D01*
X114685714Y-107907142D01*
X114800000Y-107978571D01*
X115085714Y-107978571D01*
X115200000Y-107907142D01*
X115257142Y-107835714D01*
X114228571Y-106478571D02*
X113828571Y-107978571D01*
X113428571Y-106478571D01*
X111814285Y-108107142D02*
X111642857Y-108178571D01*
X111357142Y-108178571D01*
X111242857Y-108107142D01*
X111185714Y-108035714D01*
X111128571Y-107892857D01*
X111128571Y-107750000D01*
X111185714Y-107607142D01*
X111242857Y-107535714D01*
X111357142Y-107464285D01*
X111585714Y-107392857D01*
X111700000Y-107321428D01*
X111757142Y-107250000D01*
X111814285Y-107107142D01*
X111814285Y-106964285D01*
X111757142Y-106821428D01*
X111700000Y-106750000D01*
X111585714Y-106678571D01*
X111300000Y-106678571D01*
X111128571Y-106750000D01*
X110728571Y-106678571D02*
X110442857Y-108178571D01*
X110214285Y-107107142D01*
X109985714Y-108178571D01*
X109700000Y-106678571D01*
X108557142Y-108035714D02*
X108614285Y-108107142D01*
X108785714Y-108178571D01*
X108900000Y-108178571D01*
X109071428Y-108107142D01*
X109185714Y-107964285D01*
X109242857Y-107821428D01*
X109300000Y-107535714D01*
X109300000Y-107321428D01*
X109242857Y-107035714D01*
X109185714Y-106892857D01*
X109071428Y-106750000D01*
X108900000Y-106678571D01*
X108785714Y-106678571D01*
X108614285Y-106750000D01*
X108557142Y-106821428D01*
X107471428Y-108178571D02*
X108042857Y-108178571D01*
X108042857Y-106678571D01*
X107071428Y-108178571D02*
X107071428Y-106678571D01*
X106385714Y-108178571D02*
X106900000Y-107321428D01*
X106385714Y-106678571D02*
X107071428Y-107535714D01*
X115514285Y-103750000D02*
X115628571Y-103678571D01*
X115800000Y-103678571D01*
X115971428Y-103750000D01*
X116085714Y-103892857D01*
X116142857Y-104035714D01*
X116200000Y-104321428D01*
X116200000Y-104535714D01*
X116142857Y-104821428D01*
X116085714Y-104964285D01*
X115971428Y-105107142D01*
X115800000Y-105178571D01*
X115685714Y-105178571D01*
X115514285Y-105107142D01*
X115457142Y-105035714D01*
X115457142Y-104535714D01*
X115685714Y-104535714D01*
X114942857Y-105178571D02*
X114942857Y-103678571D01*
X114257142Y-105178571D01*
X114257142Y-103678571D01*
X113685714Y-105178571D02*
X113685714Y-103678571D01*
X113400000Y-103678571D01*
X113228571Y-103750000D01*
X113114285Y-103892857D01*
X113057142Y-104035714D01*
X113000000Y-104321428D01*
X113000000Y-104535714D01*
X113057142Y-104821428D01*
X113114285Y-104964285D01*
X113228571Y-105107142D01*
X113400000Y-105178571D01*
X113685714Y-105178571D01*
X110014285Y-104150000D02*
X110128571Y-104078571D01*
X110300000Y-104078571D01*
X110471428Y-104150000D01*
X110585714Y-104292857D01*
X110642857Y-104435714D01*
X110700000Y-104721428D01*
X110700000Y-104935714D01*
X110642857Y-105221428D01*
X110585714Y-105364285D01*
X110471428Y-105507142D01*
X110300000Y-105578571D01*
X110185714Y-105578571D01*
X110014285Y-105507142D01*
X109957142Y-105435714D01*
X109957142Y-104935714D01*
X110185714Y-104935714D01*
X109442857Y-105578571D02*
X109442857Y-104078571D01*
X108757142Y-105578571D01*
X108757142Y-104078571D01*
X108185714Y-105578571D02*
X108185714Y-104078571D01*
X107900000Y-104078571D01*
X107728571Y-104150000D01*
X107614285Y-104292857D01*
X107557142Y-104435714D01*
X107500000Y-104721428D01*
X107500000Y-104935714D01*
X107557142Y-105221428D01*
X107614285Y-105364285D01*
X107728571Y-105507142D01*
X107900000Y-105578571D01*
X108185714Y-105578571D01*
D11*
G36*
X116171549Y-109641606D02*
X116170925Y-110049269D01*
X116170311Y-110427290D01*
X116169699Y-110776818D01*
X116169080Y-111098999D01*
X116168444Y-111394980D01*
X116167783Y-111665910D01*
X116167088Y-111912934D01*
X116166351Y-112137200D01*
X116165563Y-112339855D01*
X116164714Y-112522046D01*
X116163796Y-112684920D01*
X116162800Y-112829624D01*
X116161718Y-112957306D01*
X116160541Y-113069112D01*
X116159259Y-113166190D01*
X116157864Y-113249687D01*
X116156347Y-113320749D01*
X116154700Y-113380524D01*
X116152913Y-113430160D01*
X116150978Y-113470802D01*
X116148887Y-113503598D01*
X116146629Y-113529696D01*
X116144197Y-113550243D01*
X116141581Y-113566384D01*
X116141435Y-113567150D01*
X116105051Y-113722880D01*
X116060665Y-113851601D01*
X116007218Y-113956298D01*
X115998906Y-113969278D01*
X115971112Y-114012406D01*
X115951710Y-114044276D01*
X115945212Y-114057162D01*
X115960171Y-114058278D01*
X116003312Y-114059331D01*
X116072026Y-114060305D01*
X116163707Y-114061182D01*
X116275749Y-114061945D01*
X116405544Y-114062577D01*
X116550485Y-114063060D01*
X116707966Y-114063377D01*
X116875379Y-114063512D01*
X116907333Y-114063516D01*
X117869454Y-114063516D01*
X117869454Y-113848000D01*
X117870229Y-113770599D01*
X117872358Y-113705599D01*
X117875545Y-113658490D01*
X117879496Y-113634762D01*
X117881000Y-113632996D01*
X117897128Y-113642641D01*
X117930352Y-113667970D01*
X117974665Y-113704313D01*
X117994874Y-113721512D01*
X118160201Y-113845238D01*
X118347624Y-113952551D01*
X118551890Y-114041186D01*
X118767752Y-114108878D01*
X118989959Y-114153362D01*
X118998864Y-114154621D01*
X119091591Y-114163530D01*
X119204942Y-114168321D01*
X119329047Y-114169098D01*
X119454034Y-114165969D01*
X119570030Y-114159040D01*
X119667166Y-114148418D01*
X119674408Y-114147322D01*
X119830674Y-114113730D01*
X119997573Y-114061563D01*
X120165860Y-113994680D01*
X120326289Y-113916941D01*
X120469616Y-113832206D01*
X120529310Y-113790415D01*
X120670257Y-113672736D01*
X120810815Y-113531693D01*
X120944922Y-113374181D01*
X121066510Y-113207097D01*
X121128565Y-113109091D01*
X121219340Y-112937773D01*
X121302236Y-112742715D01*
X121375102Y-112530424D01*
X121435789Y-112307409D01*
X121482147Y-112080181D01*
X121494610Y-112000715D01*
X121509913Y-111866411D01*
X121520986Y-111709619D01*
X121527626Y-111538378D01*
X121529631Y-111360722D01*
X121528377Y-111282758D01*
X119656003Y-111282758D01*
X119655542Y-111413767D01*
X119653277Y-111538870D01*
X119649213Y-111651124D01*
X119643355Y-111743588D01*
X119639161Y-111785213D01*
X119603635Y-112002818D01*
X119553505Y-112193487D01*
X119488648Y-112357453D01*
X119408938Y-112494950D01*
X119314253Y-112606210D01*
X119204469Y-112691468D01*
X119140121Y-112726191D01*
X119007208Y-112771767D01*
X118859027Y-112791849D01*
X118697708Y-112786341D01*
X118525381Y-112755148D01*
X118519484Y-112753668D01*
X118429730Y-112724488D01*
X118326918Y-112680791D01*
X118221618Y-112627804D01*
X118124397Y-112570749D01*
X118061878Y-112527473D01*
X117984909Y-112468951D01*
X117984909Y-109854303D01*
X118106004Y-109773397D01*
X118260611Y-109684852D01*
X118419737Y-109621564D01*
X118579944Y-109583996D01*
X118737798Y-109572609D01*
X118889863Y-109587866D01*
X119032702Y-109630228D01*
X119065155Y-109644445D01*
X119151336Y-109696055D01*
X119239832Y-109768487D01*
X119322391Y-109853648D01*
X119390760Y-109943442D01*
X119419297Y-109991819D01*
X119476389Y-110119720D01*
X119528300Y-110272313D01*
X119573499Y-110443719D01*
X119610456Y-110628057D01*
X119637640Y-110819449D01*
X119639733Y-110838485D01*
X119646527Y-110923706D01*
X119651500Y-111030785D01*
X119654658Y-111152784D01*
X119656003Y-111282758D01*
X121528377Y-111282758D01*
X121526798Y-111184689D01*
X121519244Y-111023213D01*
X121487415Y-110673701D01*
X121438588Y-110349235D01*
X121372525Y-110049036D01*
X121288986Y-109772324D01*
X121187735Y-109518319D01*
X121068534Y-109286242D01*
X120931144Y-109075312D01*
X120919968Y-109060146D01*
X120759693Y-108867807D01*
X120584143Y-108701943D01*
X120392404Y-108561968D01*
X120183560Y-108447296D01*
X119956696Y-108357340D01*
X119724424Y-108294409D01*
X119643247Y-108281757D01*
X119539029Y-108272928D01*
X119419277Y-108267910D01*
X119291498Y-108266695D01*
X119163199Y-108269273D01*
X119041887Y-108275635D01*
X118935070Y-108285769D01*
X118870769Y-108295506D01*
X118670433Y-108343008D01*
X118480195Y-108407996D01*
X118305373Y-108488154D01*
X118151285Y-108581164D01*
X118066814Y-108645685D01*
X118027443Y-108677685D01*
X117997656Y-108699692D01*
X117985385Y-108706425D01*
X117983973Y-108691417D01*
X117982739Y-108647937D01*
X117981692Y-108578299D01*
X117980841Y-108484819D01*
X117980196Y-108369812D01*
X117979765Y-108235593D01*
X117979558Y-108084476D01*
X117979584Y-107918778D01*
X117979851Y-107740812D01*
X117980369Y-107552894D01*
X117980607Y-107486455D01*
X117985222Y-106266485D01*
X118020159Y-106163100D01*
X118047564Y-106096142D01*
X118085355Y-106021319D01*
X118123911Y-105957091D01*
X118155946Y-105908664D01*
X118180035Y-105871002D01*
X118192074Y-105850562D01*
X118192727Y-105848810D01*
X118177758Y-105847839D01*
X118134548Y-105846920D01*
X118065644Y-105846068D01*
X117973594Y-105845298D01*
X117860946Y-105844623D01*
X117730245Y-105844058D01*
X117584040Y-105843617D01*
X117424878Y-105843315D01*
X117255306Y-105843166D01*
X117184975Y-105843152D01*
X116177223Y-105843152D01*
X116171549Y-109641606D01*
X116171549Y-109641606D01*
G37*
X116171549Y-109641606D02*
X116170925Y-110049269D01*
X116170311Y-110427290D01*
X116169699Y-110776818D01*
X116169080Y-111098999D01*
X116168444Y-111394980D01*
X116167783Y-111665910D01*
X116167088Y-111912934D01*
X116166351Y-112137200D01*
X116165563Y-112339855D01*
X116164714Y-112522046D01*
X116163796Y-112684920D01*
X116162800Y-112829624D01*
X116161718Y-112957306D01*
X116160541Y-113069112D01*
X116159259Y-113166190D01*
X116157864Y-113249687D01*
X116156347Y-113320749D01*
X116154700Y-113380524D01*
X116152913Y-113430160D01*
X116150978Y-113470802D01*
X116148887Y-113503598D01*
X116146629Y-113529696D01*
X116144197Y-113550243D01*
X116141581Y-113566384D01*
X116141435Y-113567150D01*
X116105051Y-113722880D01*
X116060665Y-113851601D01*
X116007218Y-113956298D01*
X115998906Y-113969278D01*
X115971112Y-114012406D01*
X115951710Y-114044276D01*
X115945212Y-114057162D01*
X115960171Y-114058278D01*
X116003312Y-114059331D01*
X116072026Y-114060305D01*
X116163707Y-114061182D01*
X116275749Y-114061945D01*
X116405544Y-114062577D01*
X116550485Y-114063060D01*
X116707966Y-114063377D01*
X116875379Y-114063512D01*
X116907333Y-114063516D01*
X117869454Y-114063516D01*
X117869454Y-113848000D01*
X117870229Y-113770599D01*
X117872358Y-113705599D01*
X117875545Y-113658490D01*
X117879496Y-113634762D01*
X117881000Y-113632996D01*
X117897128Y-113642641D01*
X117930352Y-113667970D01*
X117974665Y-113704313D01*
X117994874Y-113721512D01*
X118160201Y-113845238D01*
X118347624Y-113952551D01*
X118551890Y-114041186D01*
X118767752Y-114108878D01*
X118989959Y-114153362D01*
X118998864Y-114154621D01*
X119091591Y-114163530D01*
X119204942Y-114168321D01*
X119329047Y-114169098D01*
X119454034Y-114165969D01*
X119570030Y-114159040D01*
X119667166Y-114148418D01*
X119674408Y-114147322D01*
X119830674Y-114113730D01*
X119997573Y-114061563D01*
X120165860Y-113994680D01*
X120326289Y-113916941D01*
X120469616Y-113832206D01*
X120529310Y-113790415D01*
X120670257Y-113672736D01*
X120810815Y-113531693D01*
X120944922Y-113374181D01*
X121066510Y-113207097D01*
X121128565Y-113109091D01*
X121219340Y-112937773D01*
X121302236Y-112742715D01*
X121375102Y-112530424D01*
X121435789Y-112307409D01*
X121482147Y-112080181D01*
X121494610Y-112000715D01*
X121509913Y-111866411D01*
X121520986Y-111709619D01*
X121527626Y-111538378D01*
X121529631Y-111360722D01*
X121528377Y-111282758D01*
X119656003Y-111282758D01*
X119655542Y-111413767D01*
X119653277Y-111538870D01*
X119649213Y-111651124D01*
X119643355Y-111743588D01*
X119639161Y-111785213D01*
X119603635Y-112002818D01*
X119553505Y-112193487D01*
X119488648Y-112357453D01*
X119408938Y-112494950D01*
X119314253Y-112606210D01*
X119204469Y-112691468D01*
X119140121Y-112726191D01*
X119007208Y-112771767D01*
X118859027Y-112791849D01*
X118697708Y-112786341D01*
X118525381Y-112755148D01*
X118519484Y-112753668D01*
X118429730Y-112724488D01*
X118326918Y-112680791D01*
X118221618Y-112627804D01*
X118124397Y-112570749D01*
X118061878Y-112527473D01*
X117984909Y-112468951D01*
X117984909Y-109854303D01*
X118106004Y-109773397D01*
X118260611Y-109684852D01*
X118419737Y-109621564D01*
X118579944Y-109583996D01*
X118737798Y-109572609D01*
X118889863Y-109587866D01*
X119032702Y-109630228D01*
X119065155Y-109644445D01*
X119151336Y-109696055D01*
X119239832Y-109768487D01*
X119322391Y-109853648D01*
X119390760Y-109943442D01*
X119419297Y-109991819D01*
X119476389Y-110119720D01*
X119528300Y-110272313D01*
X119573499Y-110443719D01*
X119610456Y-110628057D01*
X119637640Y-110819449D01*
X119639733Y-110838485D01*
X119646527Y-110923706D01*
X119651500Y-111030785D01*
X119654658Y-111152784D01*
X119656003Y-111282758D01*
X121528377Y-111282758D01*
X121526798Y-111184689D01*
X121519244Y-111023213D01*
X121487415Y-110673701D01*
X121438588Y-110349235D01*
X121372525Y-110049036D01*
X121288986Y-109772324D01*
X121187735Y-109518319D01*
X121068534Y-109286242D01*
X120931144Y-109075312D01*
X120919968Y-109060146D01*
X120759693Y-108867807D01*
X120584143Y-108701943D01*
X120392404Y-108561968D01*
X120183560Y-108447296D01*
X119956696Y-108357340D01*
X119724424Y-108294409D01*
X119643247Y-108281757D01*
X119539029Y-108272928D01*
X119419277Y-108267910D01*
X119291498Y-108266695D01*
X119163199Y-108269273D01*
X119041887Y-108275635D01*
X118935070Y-108285769D01*
X118870769Y-108295506D01*
X118670433Y-108343008D01*
X118480195Y-108407996D01*
X118305373Y-108488154D01*
X118151285Y-108581164D01*
X118066814Y-108645685D01*
X118027443Y-108677685D01*
X117997656Y-108699692D01*
X117985385Y-108706425D01*
X117983973Y-108691417D01*
X117982739Y-108647937D01*
X117981692Y-108578299D01*
X117980841Y-108484819D01*
X117980196Y-108369812D01*
X117979765Y-108235593D01*
X117979558Y-108084476D01*
X117979584Y-107918778D01*
X117979851Y-107740812D01*
X117980369Y-107552894D01*
X117980607Y-107486455D01*
X117985222Y-106266485D01*
X118020159Y-106163100D01*
X118047564Y-106096142D01*
X118085355Y-106021319D01*
X118123911Y-105957091D01*
X118155946Y-105908664D01*
X118180035Y-105871002D01*
X118192074Y-105850562D01*
X118192727Y-105848810D01*
X118177758Y-105847839D01*
X118134548Y-105846920D01*
X118065644Y-105846068D01*
X117973594Y-105845298D01*
X117860946Y-105844623D01*
X117730245Y-105844058D01*
X117584040Y-105843617D01*
X117424878Y-105843315D01*
X117255306Y-105843166D01*
X117184975Y-105843152D01*
X116177223Y-105843152D01*
X116171549Y-109641606D01*
G36*
X124195154Y-108269935D02*
X123909187Y-108299564D01*
X123645438Y-108349030D01*
X123404178Y-108418209D01*
X123185680Y-108506976D01*
X122990216Y-108615207D01*
X122818058Y-108742778D01*
X122669478Y-108889563D01*
X122544747Y-109055439D01*
X122467497Y-109191334D01*
X122414371Y-109313297D01*
X122363636Y-109459795D01*
X122316948Y-109624582D01*
X122275963Y-109801413D01*
X122242336Y-109984045D01*
X122224655Y-110107273D01*
X122221217Y-110147431D01*
X122217974Y-110212275D01*
X122214914Y-110302426D01*
X122212029Y-110418508D01*
X122209310Y-110561142D01*
X122206746Y-110730950D01*
X122204328Y-110928554D01*
X122202046Y-111154576D01*
X122199892Y-111409639D01*
X122197854Y-111694364D01*
X122196285Y-111946849D01*
X122186378Y-113640182D01*
X122151823Y-113743568D01*
X122124620Y-113810507D01*
X122086979Y-113885311D01*
X122048452Y-113949576D01*
X122016414Y-113998021D01*
X121992325Y-114035720D01*
X121980288Y-114056208D01*
X121979636Y-114057974D01*
X121994594Y-114058928D01*
X122037728Y-114059709D01*
X122106425Y-114060311D01*
X122198073Y-114060730D01*
X122310060Y-114060960D01*
X122439774Y-114060997D01*
X122584603Y-114060836D01*
X122741935Y-114060472D01*
X122909157Y-114059900D01*
X122937909Y-114059784D01*
X123896181Y-114055819D01*
X123900464Y-113844152D01*
X123902380Y-113767441D01*
X123904678Y-113703128D01*
X123907108Y-113656770D01*
X123909416Y-113633924D01*
X123910064Y-113632485D01*
X123923212Y-113642107D01*
X123951953Y-113667088D01*
X123982751Y-113695251D01*
X124119542Y-113806271D01*
X124279972Y-113908382D01*
X124457404Y-113998266D01*
X124645201Y-114072604D01*
X124836726Y-114128078D01*
X124858303Y-114133012D01*
X124910567Y-114141247D01*
X124986510Y-114148830D01*
X125079168Y-114155489D01*
X125181582Y-114160948D01*
X125286788Y-114164934D01*
X125387826Y-114167173D01*
X125477734Y-114167391D01*
X125549551Y-114165314D01*
X125589515Y-114161785D01*
X125822792Y-114115851D01*
X126047760Y-114047318D01*
X126260403Y-113958077D01*
X126456708Y-113850020D01*
X126632657Y-113725038D01*
X126759673Y-113610501D01*
X126911091Y-113436960D01*
X127035895Y-113249263D01*
X127134322Y-113046784D01*
X127206614Y-112828897D01*
X127253007Y-112594977D01*
X127273743Y-112344399D01*
X127274763Y-112277819D01*
X125558727Y-112277819D01*
X125557813Y-112355068D01*
X125554078Y-112410745D01*
X125546031Y-112454037D01*
X125532179Y-112494130D01*
X125518747Y-112524122D01*
X125447681Y-112639415D01*
X125352825Y-112738068D01*
X125238011Y-112817032D01*
X125107073Y-112873261D01*
X125064057Y-112885536D01*
X124981581Y-112899009D01*
X124879524Y-112904619D01*
X124767966Y-112902762D01*
X124656985Y-112893839D01*
X124556658Y-112878249D01*
X124496545Y-112863077D01*
X124363477Y-112811074D01*
X124249943Y-112742737D01*
X124149068Y-112653093D01*
X124062891Y-112549368D01*
X123996242Y-112459159D01*
X123996242Y-112015337D01*
X123996727Y-111892419D01*
X123998114Y-111784188D01*
X124000301Y-111693869D01*
X124003185Y-111624685D01*
X124006664Y-111579861D01*
X124010607Y-111562636D01*
X124030591Y-111557997D01*
X124075034Y-111551621D01*
X124137710Y-111544291D01*
X124212394Y-111536791D01*
X124226111Y-111535530D01*
X124462186Y-111527075D01*
X124690188Y-111544697D01*
X124906929Y-111587887D01*
X125109223Y-111656136D01*
X125180776Y-111688118D01*
X125305726Y-111763959D01*
X125409984Y-111860728D01*
X125490752Y-111975668D01*
X125509334Y-112011906D01*
X125531888Y-112061872D01*
X125546300Y-112103288D01*
X125554376Y-112145862D01*
X125557916Y-112199302D01*
X125558726Y-112273316D01*
X125558727Y-112277819D01*
X127274763Y-112277819D01*
X127274999Y-112262425D01*
X127263178Y-112024361D01*
X127227113Y-111804694D01*
X127166007Y-111601871D01*
X127079065Y-111414340D01*
X126965492Y-111240547D01*
X126824492Y-111078939D01*
X126655270Y-110927963D01*
X126551636Y-110850140D01*
X126378581Y-110738860D01*
X126194368Y-110643448D01*
X125996219Y-110563097D01*
X125781356Y-110496998D01*
X125547001Y-110444341D01*
X125290374Y-110404319D01*
X125008698Y-110376122D01*
X124896788Y-110368477D01*
X124808498Y-110364378D01*
X124705602Y-110361628D01*
X124593494Y-110360170D01*
X124477573Y-110359950D01*
X124363235Y-110360908D01*
X124255878Y-110362989D01*
X124160898Y-110366137D01*
X124083693Y-110370293D01*
X124029658Y-110375401D01*
X124015485Y-110377751D01*
X123996385Y-110379678D01*
X123986013Y-110370946D01*
X123981717Y-110344965D01*
X123980849Y-110295148D01*
X123980848Y-110291645D01*
X123992177Y-110146477D01*
X124024481Y-110003594D01*
X124075234Y-109870281D01*
X124141912Y-109753822D01*
X124187135Y-109696592D01*
X124263273Y-109624361D01*
X124348309Y-109569404D01*
X124446632Y-109530227D01*
X124562635Y-109505341D01*
X124700707Y-109493252D01*
X124790734Y-109491516D01*
X124988834Y-109499561D01*
X125183922Y-109524548D01*
X125381298Y-109567755D01*
X125586262Y-109630460D01*
X125804113Y-109713939D01*
X125918522Y-109763420D01*
X125994086Y-109796824D01*
X126059057Y-109824828D01*
X126108597Y-109845403D01*
X126137868Y-109856522D01*
X126143699Y-109857802D01*
X126151341Y-109841914D01*
X126168911Y-109801927D01*
X126194579Y-109742193D01*
X126226517Y-109667068D01*
X126262896Y-109580906D01*
X126301887Y-109488062D01*
X126341662Y-109392890D01*
X126380392Y-109299744D01*
X126416248Y-109212980D01*
X126447402Y-109136951D01*
X126472024Y-109076013D01*
X126472077Y-109075879D01*
X126506831Y-108989665D01*
X126543603Y-108899772D01*
X126577858Y-108817216D01*
X126603578Y-108756455D01*
X126658226Y-108629455D01*
X126613409Y-108629455D01*
X126562920Y-108625165D01*
X126482876Y-108612296D01*
X126373289Y-108590850D01*
X126234172Y-108560831D01*
X126065537Y-108522242D01*
X125867396Y-108475083D01*
X125766545Y-108450563D01*
X125579987Y-108405500D01*
X125418652Y-108368007D01*
X125278098Y-108337414D01*
X125153885Y-108313052D01*
X125041569Y-108294252D01*
X124936709Y-108280345D01*
X124834863Y-108270662D01*
X124731590Y-108264534D01*
X124622447Y-108261292D01*
X124503067Y-108260267D01*
X124195154Y-108269935D01*
X124195154Y-108269935D01*
G37*
X124195154Y-108269935D02*
X123909187Y-108299564D01*
X123645438Y-108349030D01*
X123404178Y-108418209D01*
X123185680Y-108506976D01*
X122990216Y-108615207D01*
X122818058Y-108742778D01*
X122669478Y-108889563D01*
X122544747Y-109055439D01*
X122467497Y-109191334D01*
X122414371Y-109313297D01*
X122363636Y-109459795D01*
X122316948Y-109624582D01*
X122275963Y-109801413D01*
X122242336Y-109984045D01*
X122224655Y-110107273D01*
X122221217Y-110147431D01*
X122217974Y-110212275D01*
X122214914Y-110302426D01*
X122212029Y-110418508D01*
X122209310Y-110561142D01*
X122206746Y-110730950D01*
X122204328Y-110928554D01*
X122202046Y-111154576D01*
X122199892Y-111409639D01*
X122197854Y-111694364D01*
X122196285Y-111946849D01*
X122186378Y-113640182D01*
X122151823Y-113743568D01*
X122124620Y-113810507D01*
X122086979Y-113885311D01*
X122048452Y-113949576D01*
X122016414Y-113998021D01*
X121992325Y-114035720D01*
X121980288Y-114056208D01*
X121979636Y-114057974D01*
X121994594Y-114058928D01*
X122037728Y-114059709D01*
X122106425Y-114060311D01*
X122198073Y-114060730D01*
X122310060Y-114060960D01*
X122439774Y-114060997D01*
X122584603Y-114060836D01*
X122741935Y-114060472D01*
X122909157Y-114059900D01*
X122937909Y-114059784D01*
X123896181Y-114055819D01*
X123900464Y-113844152D01*
X123902380Y-113767441D01*
X123904678Y-113703128D01*
X123907108Y-113656770D01*
X123909416Y-113633924D01*
X123910064Y-113632485D01*
X123923212Y-113642107D01*
X123951953Y-113667088D01*
X123982751Y-113695251D01*
X124119542Y-113806271D01*
X124279972Y-113908382D01*
X124457404Y-113998266D01*
X124645201Y-114072604D01*
X124836726Y-114128078D01*
X124858303Y-114133012D01*
X124910567Y-114141247D01*
X124986510Y-114148830D01*
X125079168Y-114155489D01*
X125181582Y-114160948D01*
X125286788Y-114164934D01*
X125387826Y-114167173D01*
X125477734Y-114167391D01*
X125549551Y-114165314D01*
X125589515Y-114161785D01*
X125822792Y-114115851D01*
X126047760Y-114047318D01*
X126260403Y-113958077D01*
X126456708Y-113850020D01*
X126632657Y-113725038D01*
X126759673Y-113610501D01*
X126911091Y-113436960D01*
X127035895Y-113249263D01*
X127134322Y-113046784D01*
X127206614Y-112828897D01*
X127253007Y-112594977D01*
X127273743Y-112344399D01*
X127274763Y-112277819D01*
X125558727Y-112277819D01*
X125557813Y-112355068D01*
X125554078Y-112410745D01*
X125546031Y-112454037D01*
X125532179Y-112494130D01*
X125518747Y-112524122D01*
X125447681Y-112639415D01*
X125352825Y-112738068D01*
X125238011Y-112817032D01*
X125107073Y-112873261D01*
X125064057Y-112885536D01*
X124981581Y-112899009D01*
X124879524Y-112904619D01*
X124767966Y-112902762D01*
X124656985Y-112893839D01*
X124556658Y-112878249D01*
X124496545Y-112863077D01*
X124363477Y-112811074D01*
X124249943Y-112742737D01*
X124149068Y-112653093D01*
X124062891Y-112549368D01*
X123996242Y-112459159D01*
X123996242Y-112015337D01*
X123996727Y-111892419D01*
X123998114Y-111784188D01*
X124000301Y-111693869D01*
X124003185Y-111624685D01*
X124006664Y-111579861D01*
X124010607Y-111562636D01*
X124030591Y-111557997D01*
X124075034Y-111551621D01*
X124137710Y-111544291D01*
X124212394Y-111536791D01*
X124226111Y-111535530D01*
X124462186Y-111527075D01*
X124690188Y-111544697D01*
X124906929Y-111587887D01*
X125109223Y-111656136D01*
X125180776Y-111688118D01*
X125305726Y-111763959D01*
X125409984Y-111860728D01*
X125490752Y-111975668D01*
X125509334Y-112011906D01*
X125531888Y-112061872D01*
X125546300Y-112103288D01*
X125554376Y-112145862D01*
X125557916Y-112199302D01*
X125558726Y-112273316D01*
X125558727Y-112277819D01*
X127274763Y-112277819D01*
X127274999Y-112262425D01*
X127263178Y-112024361D01*
X127227113Y-111804694D01*
X127166007Y-111601871D01*
X127079065Y-111414340D01*
X126965492Y-111240547D01*
X126824492Y-111078939D01*
X126655270Y-110927963D01*
X126551636Y-110850140D01*
X126378581Y-110738860D01*
X126194368Y-110643448D01*
X125996219Y-110563097D01*
X125781356Y-110496998D01*
X125547001Y-110444341D01*
X125290374Y-110404319D01*
X125008698Y-110376122D01*
X124896788Y-110368477D01*
X124808498Y-110364378D01*
X124705602Y-110361628D01*
X124593494Y-110360170D01*
X124477573Y-110359950D01*
X124363235Y-110360908D01*
X124255878Y-110362989D01*
X124160898Y-110366137D01*
X124083693Y-110370293D01*
X124029658Y-110375401D01*
X124015485Y-110377751D01*
X123996385Y-110379678D01*
X123986013Y-110370946D01*
X123981717Y-110344965D01*
X123980849Y-110295148D01*
X123980848Y-110291645D01*
X123992177Y-110146477D01*
X124024481Y-110003594D01*
X124075234Y-109870281D01*
X124141912Y-109753822D01*
X124187135Y-109696592D01*
X124263273Y-109624361D01*
X124348309Y-109569404D01*
X124446632Y-109530227D01*
X124562635Y-109505341D01*
X124700707Y-109493252D01*
X124790734Y-109491516D01*
X124988834Y-109499561D01*
X125183922Y-109524548D01*
X125381298Y-109567755D01*
X125586262Y-109630460D01*
X125804113Y-109713939D01*
X125918522Y-109763420D01*
X125994086Y-109796824D01*
X126059057Y-109824828D01*
X126108597Y-109845403D01*
X126137868Y-109856522D01*
X126143699Y-109857802D01*
X126151341Y-109841914D01*
X126168911Y-109801927D01*
X126194579Y-109742193D01*
X126226517Y-109667068D01*
X126262896Y-109580906D01*
X126301887Y-109488062D01*
X126341662Y-109392890D01*
X126380392Y-109299744D01*
X126416248Y-109212980D01*
X126447402Y-109136951D01*
X126472024Y-109076013D01*
X126472077Y-109075879D01*
X126506831Y-108989665D01*
X126543603Y-108899772D01*
X126577858Y-108817216D01*
X126603578Y-108756455D01*
X126658226Y-108629455D01*
X126613409Y-108629455D01*
X126562920Y-108625165D01*
X126482876Y-108612296D01*
X126373289Y-108590850D01*
X126234172Y-108560831D01*
X126065537Y-108522242D01*
X125867396Y-108475083D01*
X125766545Y-108450563D01*
X125579987Y-108405500D01*
X125418652Y-108368007D01*
X125278098Y-108337414D01*
X125153885Y-108313052D01*
X125041569Y-108294252D01*
X124936709Y-108280345D01*
X124834863Y-108270662D01*
X124731590Y-108264534D01*
X124622447Y-108261292D01*
X124503067Y-108260267D01*
X124195154Y-108269935D01*
G36*
X129215767Y-106225398D02*
X128960788Y-106266899D01*
X128727490Y-106323609D01*
X128480500Y-106402493D01*
X128225171Y-106501538D01*
X127966856Y-106618727D01*
X127798545Y-106704388D01*
X127683078Y-106763784D01*
X127582011Y-106811765D01*
X127498352Y-106847053D01*
X127435110Y-106868367D01*
X127398773Y-106874546D01*
X127386419Y-106877280D01*
X127384507Y-106888209D01*
X127394917Y-106911424D01*
X127419532Y-106951018D01*
X127460234Y-107011080D01*
X127464275Y-107016940D01*
X127500391Y-107069433D01*
X127550201Y-107142054D01*
X127610063Y-107229483D01*
X127676339Y-107326401D01*
X127745389Y-107427491D01*
X127798751Y-107505697D01*
X127868559Y-107607836D01*
X127939518Y-107711260D01*
X128007733Y-107810320D01*
X128069310Y-107899369D01*
X128120354Y-107972761D01*
X128148961Y-108013536D01*
X128193259Y-108076568D01*
X128231801Y-108131942D01*
X128260695Y-108174030D01*
X128276050Y-108197203D01*
X128276691Y-108198263D01*
X128287695Y-108206043D01*
X128305877Y-108197533D01*
X128335458Y-108169780D01*
X128367518Y-108134725D01*
X128436250Y-108066240D01*
X128524213Y-107991672D01*
X128622585Y-107917628D01*
X128722547Y-107850718D01*
X128815280Y-107797549D01*
X128822242Y-107794027D01*
X129002616Y-107720129D01*
X129197574Y-107671764D01*
X129408351Y-107648702D01*
X129607333Y-107649129D01*
X129819735Y-107672605D01*
X130016684Y-107721719D01*
X130198409Y-107796701D01*
X130365137Y-107897779D01*
X130517096Y-108025181D01*
X130654516Y-108179135D01*
X130777623Y-108359871D01*
X130886647Y-108567617D01*
X130981815Y-108802601D01*
X131063355Y-109065051D01*
X131078317Y-109121906D01*
X131110317Y-109253404D01*
X131135956Y-109375038D01*
X131155867Y-109492776D01*
X131170681Y-109612587D01*
X131181031Y-109740438D01*
X131187548Y-109882299D01*
X131190866Y-110044138D01*
X131191640Y-110191940D01*
X131189869Y-110403740D01*
X131183924Y-110590313D01*
X131173116Y-110757020D01*
X131156760Y-110909226D01*
X131134166Y-111052291D01*
X131104649Y-111191578D01*
X131067522Y-111332449D01*
X131029467Y-111457440D01*
X130958472Y-111656535D01*
X130879848Y-111831112D01*
X130790101Y-111987160D01*
X130685742Y-112130668D01*
X130563279Y-112267627D01*
X130548589Y-112282514D01*
X130383016Y-112429587D01*
X130208443Y-112547229D01*
X130024779Y-112635479D01*
X129831935Y-112694377D01*
X129629821Y-112723962D01*
X129530363Y-112727758D01*
X129299377Y-112713997D01*
X129076389Y-112670570D01*
X128861807Y-112597647D01*
X128656042Y-112495401D01*
X128459502Y-112364002D01*
X128272596Y-112203623D01*
X128266882Y-112198115D01*
X128212721Y-112146521D01*
X128166916Y-112104406D01*
X128133694Y-112075542D01*
X128117282Y-112063703D01*
X128116360Y-112063740D01*
X128107249Y-112078149D01*
X128084532Y-112115110D01*
X128050525Y-112170824D01*
X128007544Y-112241492D01*
X127957905Y-112323315D01*
X127929521Y-112370182D01*
X127826825Y-112539703D01*
X127728594Y-112701561D01*
X127636573Y-112852892D01*
X127552508Y-112990836D01*
X127478145Y-113112529D01*
X127415229Y-113215108D01*
X127365505Y-113295712D01*
X127344827Y-113328978D01*
X127312485Y-113384309D01*
X127290891Y-113428430D01*
X127282728Y-113455522D01*
X127284141Y-113460598D01*
X127305175Y-113472272D01*
X127345421Y-113490570D01*
X127386106Y-113507459D01*
X127427680Y-113526067D01*
X127490115Y-113556589D01*
X127567377Y-113595952D01*
X127653434Y-113641084D01*
X127740166Y-113687774D01*
X128026382Y-113832339D01*
X128307361Y-113950073D01*
X128588779Y-114042931D01*
X128876316Y-114112868D01*
X129076242Y-114148033D01*
X129162403Y-114158091D01*
X129271949Y-114166452D01*
X129397514Y-114172943D01*
X129531732Y-114177395D01*
X129667238Y-114179633D01*
X129796666Y-114179487D01*
X129912652Y-114176785D01*
X130007828Y-114171355D01*
X130021990Y-114170093D01*
X130250359Y-114138886D01*
X130485754Y-114089273D01*
X130720761Y-114023580D01*
X130947967Y-113944136D01*
X131159957Y-113853268D01*
X131349083Y-113753442D01*
X131598979Y-113588270D01*
X131834914Y-113396977D01*
X132055472Y-113181558D01*
X132259242Y-112944007D01*
X132444808Y-112686319D01*
X132610757Y-112410487D01*
X132755676Y-112118507D01*
X132878150Y-111812371D01*
X132976766Y-111494076D01*
X132991718Y-111436267D01*
X133050897Y-111156250D01*
X133093827Y-110856716D01*
X133120485Y-110544052D01*
X133130850Y-110224646D01*
X133124899Y-109904887D01*
X133102609Y-109591161D01*
X133063959Y-109289858D01*
X133008926Y-109007364D01*
X133000332Y-108971394D01*
X132904248Y-108638280D01*
X132783268Y-108323212D01*
X132637229Y-108025900D01*
X132465970Y-107746056D01*
X132269328Y-107483391D01*
X132047141Y-107237617D01*
X131998968Y-107189825D01*
X131830278Y-107032143D01*
X131669163Y-106896466D01*
X131508499Y-106777743D01*
X131341162Y-106670926D01*
X131160028Y-106570966D01*
X131044995Y-106513736D01*
X130758922Y-106393118D01*
X130463042Y-106301253D01*
X130159071Y-106238346D01*
X129848724Y-106204599D01*
X129533718Y-106200216D01*
X129215767Y-106225398D01*
X129215767Y-106225398D01*
G37*
X129215767Y-106225398D02*
X128960788Y-106266899D01*
X128727490Y-106323609D01*
X128480500Y-106402493D01*
X128225171Y-106501538D01*
X127966856Y-106618727D01*
X127798545Y-106704388D01*
X127683078Y-106763784D01*
X127582011Y-106811765D01*
X127498352Y-106847053D01*
X127435110Y-106868367D01*
X127398773Y-106874546D01*
X127386419Y-106877280D01*
X127384507Y-106888209D01*
X127394917Y-106911424D01*
X127419532Y-106951018D01*
X127460234Y-107011080D01*
X127464275Y-107016940D01*
X127500391Y-107069433D01*
X127550201Y-107142054D01*
X127610063Y-107229483D01*
X127676339Y-107326401D01*
X127745389Y-107427491D01*
X127798751Y-107505697D01*
X127868559Y-107607836D01*
X127939518Y-107711260D01*
X128007733Y-107810320D01*
X128069310Y-107899369D01*
X128120354Y-107972761D01*
X128148961Y-108013536D01*
X128193259Y-108076568D01*
X128231801Y-108131942D01*
X128260695Y-108174030D01*
X128276050Y-108197203D01*
X128276691Y-108198263D01*
X128287695Y-108206043D01*
X128305877Y-108197533D01*
X128335458Y-108169780D01*
X128367518Y-108134725D01*
X128436250Y-108066240D01*
X128524213Y-107991672D01*
X128622585Y-107917628D01*
X128722547Y-107850718D01*
X128815280Y-107797549D01*
X128822242Y-107794027D01*
X129002616Y-107720129D01*
X129197574Y-107671764D01*
X129408351Y-107648702D01*
X129607333Y-107649129D01*
X129819735Y-107672605D01*
X130016684Y-107721719D01*
X130198409Y-107796701D01*
X130365137Y-107897779D01*
X130517096Y-108025181D01*
X130654516Y-108179135D01*
X130777623Y-108359871D01*
X130886647Y-108567617D01*
X130981815Y-108802601D01*
X131063355Y-109065051D01*
X131078317Y-109121906D01*
X131110317Y-109253404D01*
X131135956Y-109375038D01*
X131155867Y-109492776D01*
X131170681Y-109612587D01*
X131181031Y-109740438D01*
X131187548Y-109882299D01*
X131190866Y-110044138D01*
X131191640Y-110191940D01*
X131189869Y-110403740D01*
X131183924Y-110590313D01*
X131173116Y-110757020D01*
X131156760Y-110909226D01*
X131134166Y-111052291D01*
X131104649Y-111191578D01*
X131067522Y-111332449D01*
X131029467Y-111457440D01*
X130958472Y-111656535D01*
X130879848Y-111831112D01*
X130790101Y-111987160D01*
X130685742Y-112130668D01*
X130563279Y-112267627D01*
X130548589Y-112282514D01*
X130383016Y-112429587D01*
X130208443Y-112547229D01*
X130024779Y-112635479D01*
X129831935Y-112694377D01*
X129629821Y-112723962D01*
X129530363Y-112727758D01*
X129299377Y-112713997D01*
X129076389Y-112670570D01*
X128861807Y-112597647D01*
X128656042Y-112495401D01*
X128459502Y-112364002D01*
X128272596Y-112203623D01*
X128266882Y-112198115D01*
X128212721Y-112146521D01*
X128166916Y-112104406D01*
X128133694Y-112075542D01*
X128117282Y-112063703D01*
X128116360Y-112063740D01*
X128107249Y-112078149D01*
X128084532Y-112115110D01*
X128050525Y-112170824D01*
X128007544Y-112241492D01*
X127957905Y-112323315D01*
X127929521Y-112370182D01*
X127826825Y-112539703D01*
X127728594Y-112701561D01*
X127636573Y-112852892D01*
X127552508Y-112990836D01*
X127478145Y-113112529D01*
X127415229Y-113215108D01*
X127365505Y-113295712D01*
X127344827Y-113328978D01*
X127312485Y-113384309D01*
X127290891Y-113428430D01*
X127282728Y-113455522D01*
X127284141Y-113460598D01*
X127305175Y-113472272D01*
X127345421Y-113490570D01*
X127386106Y-113507459D01*
X127427680Y-113526067D01*
X127490115Y-113556589D01*
X127567377Y-113595952D01*
X127653434Y-113641084D01*
X127740166Y-113687774D01*
X128026382Y-113832339D01*
X128307361Y-113950073D01*
X128588779Y-114042931D01*
X128876316Y-114112868D01*
X129076242Y-114148033D01*
X129162403Y-114158091D01*
X129271949Y-114166452D01*
X129397514Y-114172943D01*
X129531732Y-114177395D01*
X129667238Y-114179633D01*
X129796666Y-114179487D01*
X129912652Y-114176785D01*
X130007828Y-114171355D01*
X130021990Y-114170093D01*
X130250359Y-114138886D01*
X130485754Y-114089273D01*
X130720761Y-114023580D01*
X130947967Y-113944136D01*
X131159957Y-113853268D01*
X131349083Y-113753442D01*
X131598979Y-113588270D01*
X131834914Y-113396977D01*
X132055472Y-113181558D01*
X132259242Y-112944007D01*
X132444808Y-112686319D01*
X132610757Y-112410487D01*
X132755676Y-112118507D01*
X132878150Y-111812371D01*
X132976766Y-111494076D01*
X132991718Y-111436267D01*
X133050897Y-111156250D01*
X133093827Y-110856716D01*
X133120485Y-110544052D01*
X133130850Y-110224646D01*
X133124899Y-109904887D01*
X133102609Y-109591161D01*
X133063959Y-109289858D01*
X133008926Y-109007364D01*
X133000332Y-108971394D01*
X132904248Y-108638280D01*
X132783268Y-108323212D01*
X132637229Y-108025900D01*
X132465970Y-107746056D01*
X132269328Y-107483391D01*
X132047141Y-107237617D01*
X131998968Y-107189825D01*
X131830278Y-107032143D01*
X131669163Y-106896466D01*
X131508499Y-106777743D01*
X131341162Y-106670926D01*
X131160028Y-106570966D01*
X131044995Y-106513736D01*
X130758922Y-106393118D01*
X130463042Y-106301253D01*
X130159071Y-106238346D01*
X129848724Y-106204599D01*
X129533718Y-106200216D01*
X129215767Y-106225398D01*
G36*
X135326758Y-104126574D02*
X135166780Y-104154932D01*
X135017574Y-104209412D01*
X134874395Y-104291487D01*
X134811830Y-104336917D01*
X134696636Y-104443466D01*
X134594900Y-104572751D01*
X134511274Y-104718008D01*
X134456349Y-104853707D01*
X134430592Y-104932456D01*
X133881708Y-104942606D01*
X133815136Y-104989429D01*
X133767990Y-105030036D01*
X133726549Y-105077981D01*
X133714010Y-105097186D01*
X133679456Y-105158122D01*
X133683092Y-110094299D01*
X133686727Y-115030477D01*
X133734372Y-115089633D01*
X133777455Y-115134225D01*
X133827278Y-115173846D01*
X133842130Y-115183171D01*
X133902242Y-115217555D01*
X139013030Y-115217713D01*
X139487021Y-115217718D01*
X139931187Y-115217699D01*
X140346494Y-115217652D01*
X140733904Y-115217572D01*
X141094383Y-115217455D01*
X141428893Y-115217297D01*
X141738400Y-115217092D01*
X142023866Y-115216837D01*
X142286255Y-115216528D01*
X142526533Y-115216159D01*
X142745662Y-115215726D01*
X142944606Y-115215226D01*
X143124331Y-115214652D01*
X143285798Y-115214002D01*
X143429973Y-115213270D01*
X143557820Y-115212452D01*
X143670302Y-115211543D01*
X143768383Y-115210540D01*
X143853027Y-115209438D01*
X143925199Y-115208231D01*
X143985861Y-115206917D01*
X144035979Y-115205490D01*
X144076516Y-115203946D01*
X144108435Y-115202280D01*
X144132702Y-115200489D01*
X144150280Y-115198567D01*
X144162132Y-115196510D01*
X144169223Y-115194314D01*
X144170000Y-115193939D01*
X144232961Y-115151462D01*
X144287363Y-115096931D01*
X144324626Y-115039604D01*
X144332692Y-115018377D01*
X144334377Y-114997441D01*
X144335937Y-114946739D01*
X144337370Y-114866213D01*
X144338678Y-114755801D01*
X144339859Y-114615443D01*
X144340915Y-114445079D01*
X144341845Y-114244650D01*
X144342650Y-114014094D01*
X144343330Y-113753351D01*
X144343884Y-113462362D01*
X144344313Y-113141067D01*
X144344618Y-112789404D01*
X144344797Y-112407314D01*
X144344852Y-111994737D01*
X144344783Y-111551613D01*
X144344589Y-111077881D01*
X144344271Y-110573481D01*
X144343833Y-110043277D01*
X144340422Y-106313120D01*
X143685091Y-106313120D01*
X143676258Y-106328452D01*
X143653156Y-106360615D01*
X143622408Y-106400569D01*
X143552528Y-106499731D01*
X143499896Y-106601223D01*
X143461983Y-106712191D01*
X143436261Y-106839782D01*
X143422072Y-106966910D01*
X143420014Y-107008657D01*
X143418152Y-107080893D01*
X143416488Y-107183319D01*
X143415022Y-107315637D01*
X143413755Y-107477547D01*
X143412688Y-107668751D01*
X143411823Y-107888950D01*
X143411159Y-108137846D01*
X143410698Y-108415140D01*
X143410441Y-108720533D01*
X143410389Y-109053727D01*
X143410543Y-109414423D01*
X143410903Y-109802322D01*
X143411471Y-110217126D01*
X143411654Y-110330485D01*
X143412290Y-110701213D01*
X143412916Y-111042410D01*
X143413545Y-111355331D01*
X143414187Y-111641234D01*
X143414854Y-111901376D01*
X143415558Y-112137012D01*
X143416310Y-112349399D01*
X143417122Y-112539794D01*
X143418006Y-112709452D01*
X143418972Y-112859632D01*
X143420033Y-112991589D01*
X143421199Y-113106579D01*
X143422484Y-113205859D01*
X143423897Y-113290686D01*
X143425451Y-113362316D01*
X143427157Y-113422006D01*
X143429026Y-113471012D01*
X143431071Y-113510591D01*
X143433303Y-113541998D01*
X143435732Y-113566491D01*
X143438372Y-113585327D01*
X143441233Y-113599761D01*
X143441700Y-113601697D01*
X143490062Y-113751740D01*
X143556742Y-113881150D01*
X143613385Y-113959651D01*
X143648106Y-114003275D01*
X143673574Y-114037173D01*
X143684909Y-114054814D01*
X143685091Y-114055601D01*
X143670082Y-114056837D01*
X143626596Y-114058013D01*
X143556942Y-114059115D01*
X143463433Y-114060128D01*
X143348377Y-114061037D01*
X143214086Y-114061828D01*
X143062871Y-114062485D01*
X142897040Y-114062992D01*
X142718906Y-114063337D01*
X142530778Y-114063502D01*
X142460242Y-114063516D01*
X141235393Y-114063516D01*
X141288762Y-113998091D01*
X141371139Y-113874017D01*
X141436590Y-113724787D01*
X141484858Y-113551130D01*
X141515515Y-113355394D01*
X141518494Y-113310447D01*
X141521075Y-113236685D01*
X141523240Y-113136079D01*
X141524973Y-113010597D01*
X141526256Y-112862212D01*
X141527071Y-112692894D01*
X141527400Y-112504613D01*
X141527227Y-112299338D01*
X141526639Y-112104840D01*
X141522242Y-111000529D01*
X141418220Y-111142719D01*
X141377165Y-111198844D01*
X141322485Y-111273606D01*
X141258723Y-111360791D01*
X141190427Y-111454181D01*
X141122142Y-111547563D01*
X141105956Y-111569697D01*
X141033858Y-111668233D01*
X140956398Y-111773986D01*
X140879327Y-111879113D01*
X140808394Y-111975772D01*
X140749350Y-112056119D01*
X140744800Y-112062303D01*
X140619997Y-112231941D01*
X140511539Y-112379423D01*
X140417501Y-112507374D01*
X140335958Y-112618418D01*
X140264985Y-112715181D01*
X140202656Y-112800289D01*
X140147046Y-112876365D01*
X140096231Y-112946034D01*
X140048285Y-113011923D01*
X140039200Y-113024425D01*
X139958091Y-113141584D01*
X139880834Y-113263579D01*
X139810648Y-113384607D01*
X139750756Y-113498867D01*
X139704378Y-113600557D01*
X139676537Y-113677613D01*
X139658809Y-113768193D01*
X139652825Y-113870316D01*
X139659101Y-113967865D01*
X139666019Y-114005788D01*
X139679424Y-114063516D01*
X138341772Y-114063516D01*
X136609245Y-114063516D01*
X135459713Y-114063516D01*
X135274623Y-114063391D01*
X135098759Y-114063032D01*
X134934507Y-114062458D01*
X134784252Y-114061688D01*
X134650378Y-114060742D01*
X134535271Y-114059640D01*
X134441315Y-114058401D01*
X134370896Y-114057046D01*
X134326398Y-114055595D01*
X134310207Y-114054066D01*
X134310181Y-114054002D01*
X134319472Y-114037716D01*
X134342948Y-114007584D01*
X134356392Y-113991858D01*
X134406382Y-113922914D01*
X134454773Y-113834824D01*
X134495629Y-113738927D01*
X134508271Y-113701758D01*
X134511365Y-113689450D01*
X134514199Y-113672225D01*
X134516786Y-113648714D01*
X134519141Y-113617548D01*
X134521279Y-113577359D01*
X134523215Y-113526778D01*
X134524962Y-113464436D01*
X134526536Y-113388963D01*
X134527952Y-113298992D01*
X134529223Y-113193153D01*
X134530365Y-113070078D01*
X134531392Y-112928397D01*
X134532319Y-112766742D01*
X134533160Y-112583744D01*
X134533931Y-112378034D01*
X134534644Y-112148244D01*
X134535317Y-111893004D01*
X134535962Y-111610946D01*
X134536594Y-111300700D01*
X134537165Y-110996273D01*
X134541936Y-108367758D01*
X135565210Y-108367758D01*
X135739601Y-108367884D01*
X135904622Y-108368247D01*
X136057746Y-108368827D01*
X136196444Y-108369601D01*
X136318190Y-108370550D01*
X136420454Y-108371651D01*
X136500710Y-108372883D01*
X136556430Y-108374225D01*
X136585085Y-108375656D01*
X136588485Y-108376358D01*
X136579688Y-108392428D01*
X136557371Y-108423427D01*
X136543046Y-108441782D01*
X136510711Y-108488706D01*
X136476562Y-108548062D01*
X136457802Y-108585917D01*
X136446664Y-108610045D01*
X136436534Y-108632282D01*
X136427367Y-108654122D01*
X136419118Y-108677057D01*
X136411742Y-108702583D01*
X136405194Y-108732192D01*
X136399428Y-108767378D01*
X136394398Y-108809635D01*
X136390060Y-108860456D01*
X136386369Y-108921335D01*
X136383278Y-108993767D01*
X136380742Y-109079243D01*
X136378717Y-109179259D01*
X136377157Y-109295307D01*
X136376016Y-109428882D01*
X136375250Y-109581477D01*
X136374813Y-109754585D01*
X136374659Y-109949701D01*
X136374744Y-110168317D01*
X136375022Y-110411929D01*
X136375447Y-110682029D01*
X136375975Y-110980110D01*
X136376488Y-111266265D01*
X136380666Y-113640182D01*
X136416578Y-113740243D01*
X136453658Y-113829107D01*
X136499080Y-113916197D01*
X136546968Y-113990975D01*
X136577453Y-114028879D01*
X136609245Y-114063516D01*
X138341772Y-114063516D01*
X138141781Y-114063418D01*
X137950842Y-114063135D01*
X137771167Y-114062680D01*
X137604966Y-114062069D01*
X137454451Y-114061314D01*
X137321832Y-114060432D01*
X137209320Y-114059436D01*
X137119126Y-114058340D01*
X137053462Y-114057160D01*
X137014537Y-114055908D01*
X137004121Y-114054825D01*
X137014907Y-114040581D01*
X137041942Y-114015296D01*
X137054151Y-114004993D01*
X137143579Y-113926740D01*
X137236064Y-113835940D01*
X137335780Y-113728255D01*
X137446899Y-113599345D01*
X137464228Y-113578606D01*
X137524766Y-113505734D01*
X137578856Y-113440082D01*
X137628716Y-113378711D01*
X137676570Y-113318685D01*
X137724636Y-113257067D01*
X137775137Y-113190919D01*
X137830292Y-113117305D01*
X137892324Y-113033287D01*
X137963453Y-112935927D01*
X138045899Y-112822289D01*
X138141884Y-112689436D01*
X138251030Y-112538037D01*
X138340937Y-112413500D01*
X138444506Y-112270459D01*
X138557160Y-112115212D01*
X138674320Y-111954059D01*
X138791408Y-111793297D01*
X138903846Y-111639226D01*
X138982837Y-111531213D01*
X139052022Y-111436511D01*
X139126082Y-111334794D01*
X139199065Y-111234261D01*
X139265017Y-111143111D01*
X139312570Y-111077091D01*
X139416363Y-110933014D01*
X139534116Y-110770435D01*
X139661353Y-110595509D01*
X139793598Y-110414391D01*
X139905836Y-110261213D01*
X139973409Y-110169013D01*
X140024712Y-110098410D01*
X140061746Y-110046221D01*
X140086511Y-110009260D01*
X140101008Y-109984345D01*
X140107237Y-109968291D01*
X140107201Y-109957915D01*
X140102898Y-109950033D01*
X140102065Y-109948943D01*
X140089338Y-109932958D01*
X140059601Y-109895825D01*
X140015135Y-109840388D01*
X139958224Y-109769490D01*
X139891151Y-109685976D01*
X139816199Y-109592691D01*
X139742722Y-109501273D01*
X139659575Y-109397770D01*
X139579640Y-109298129D01*
X139505698Y-109205827D01*
X139440530Y-109124341D01*
X139386915Y-109057145D01*
X139347636Y-109007718D01*
X139328606Y-108983566D01*
X139304467Y-108953030D01*
X139263346Y-108901454D01*
X139207589Y-108831764D01*
X139139542Y-108746884D01*
X139061551Y-108649741D01*
X138975963Y-108543259D01*
X138885124Y-108430362D01*
X138820691Y-108350354D01*
X138723176Y-108229297D01*
X138625564Y-108108095D01*
X138530842Y-107990458D01*
X138441995Y-107880094D01*
X138362009Y-107780713D01*
X138293871Y-107696024D01*
X138240565Y-107629736D01*
X138220328Y-107604551D01*
X138085882Y-107437630D01*
X137968080Y-107292467D01*
X137864692Y-107166493D01*
X137773489Y-107057141D01*
X137692243Y-106961842D01*
X137618725Y-106878028D01*
X137550706Y-106803132D01*
X137485956Y-106734585D01*
X137422248Y-106669819D01*
X137357351Y-106606267D01*
X137336803Y-106586562D01*
X137271847Y-106526137D01*
X137206951Y-106468533D01*
X137149010Y-106419697D01*
X137104917Y-106385577D01*
X137099411Y-106381747D01*
X137057962Y-106351938D01*
X137029176Y-106328033D01*
X137019912Y-106316516D01*
X137034870Y-106314764D01*
X137078373Y-106313093D01*
X137148176Y-106311522D01*
X137242036Y-106310073D01*
X137357708Y-106308764D01*
X137492950Y-106307616D01*
X137645517Y-106306649D01*
X137813166Y-106305882D01*
X137993652Y-106305336D01*
X138184733Y-106305030D01*
X138317253Y-106304970D01*
X139614992Y-106304970D01*
X139599921Y-106396098D01*
X139592728Y-106488084D01*
X139603407Y-106570145D01*
X139634671Y-106670549D01*
X139686205Y-106787367D01*
X139755549Y-106916247D01*
X139840244Y-107052839D01*
X139937827Y-107192792D01*
X140006201Y-107282485D01*
X140060220Y-107351256D01*
X140112325Y-107418139D01*
X140157041Y-107476075D01*
X140188896Y-107518001D01*
X140192181Y-107522412D01*
X140220456Y-107559579D01*
X140263117Y-107614472D01*
X140315252Y-107680825D01*
X140371953Y-107752374D01*
X140397259Y-107784109D01*
X140459460Y-107862084D01*
X140533745Y-107955429D01*
X140613127Y-108055347D01*
X140690613Y-108153041D01*
X140738737Y-108213819D01*
X140807105Y-108300112D01*
X140878513Y-108390022D01*
X140947139Y-108476233D01*
X141007163Y-108551431D01*
X141045013Y-108598667D01*
X141102802Y-108671246D01*
X141170283Y-108757023D01*
X141238567Y-108844647D01*
X141292236Y-108914243D01*
X141345076Y-108982536D01*
X141396475Y-109047756D01*
X141440975Y-109103053D01*
X141473115Y-109141574D01*
X141476241Y-109145152D01*
X141530537Y-109206728D01*
X141525378Y-108082970D01*
X141524364Y-107869096D01*
X141523375Y-107683660D01*
X141522345Y-107524310D01*
X141521203Y-107388696D01*
X141519883Y-107274469D01*
X141518314Y-107179276D01*
X141516428Y-107100768D01*
X141514158Y-107036594D01*
X141511434Y-106984405D01*
X141508187Y-106941848D01*
X141504349Y-106906574D01*
X141499852Y-106876232D01*
X141494627Y-106848472D01*
X141488605Y-106820943D01*
X141488542Y-106820667D01*
X141445806Y-106672784D01*
X141388874Y-106535708D01*
X141321534Y-106418265D01*
X141307134Y-106397888D01*
X141278178Y-106356971D01*
X141258484Y-106326325D01*
X141252848Y-106314453D01*
X141267856Y-106312968D01*
X141311332Y-106311554D01*
X141380959Y-106310229D01*
X141474417Y-106309012D01*
X141589389Y-106307921D01*
X141723554Y-106306974D01*
X141874595Y-106306188D01*
X142040192Y-106305582D01*
X142218027Y-106305174D01*
X142405781Y-106304983D01*
X142468969Y-106304970D01*
X142659465Y-106305071D01*
X142840801Y-106305362D01*
X143010657Y-106305829D01*
X143166715Y-106306455D01*
X143306657Y-106307225D01*
X143428163Y-106308125D01*
X143528914Y-106309137D01*
X143606593Y-106310246D01*
X143658880Y-106311438D01*
X143683457Y-106312696D01*
X143685091Y-106313120D01*
X144340422Y-106313120D01*
X144339333Y-105122494D01*
X144291519Y-105063338D01*
X144250705Y-105020135D01*
X144205694Y-104982727D01*
X144191458Y-104973394D01*
X144185611Y-104970134D01*
X144178784Y-104967111D01*
X144169837Y-104964315D01*
X144157626Y-104961736D01*
X144141007Y-104959363D01*
X144118840Y-104957186D01*
X144089980Y-104955196D01*
X144053285Y-104953381D01*
X144007613Y-104951731D01*
X143951820Y-104950237D01*
X143884764Y-104948888D01*
X143805302Y-104947674D01*
X143712291Y-104946584D01*
X143604588Y-104945609D01*
X143481052Y-104944737D01*
X143340538Y-104943960D01*
X143181905Y-104943266D01*
X143004009Y-104942646D01*
X142805708Y-104942088D01*
X142585858Y-104941584D01*
X142343318Y-104941122D01*
X142076945Y-104940693D01*
X141785595Y-104940286D01*
X141468126Y-104939891D01*
X141123396Y-104939497D01*
X140750261Y-104939095D01*
X140347578Y-104938675D01*
X140311702Y-104938638D01*
X136484192Y-104934669D01*
X136458074Y-104853971D01*
X136412061Y-104739150D01*
X136349715Y-104622319D01*
X136277724Y-104514797D01*
X136211333Y-104436484D01*
X136081000Y-104320179D01*
X135943255Y-104232187D01*
X135794328Y-104170841D01*
X135630448Y-104134472D01*
X135502253Y-104122869D01*
X135326758Y-104126574D01*
X135326758Y-104126574D01*
G37*
X135326758Y-104126574D02*
X135166780Y-104154932D01*
X135017574Y-104209412D01*
X134874395Y-104291487D01*
X134811830Y-104336917D01*
X134696636Y-104443466D01*
X134594900Y-104572751D01*
X134511274Y-104718008D01*
X134456349Y-104853707D01*
X134430592Y-104932456D01*
X133881708Y-104942606D01*
X133815136Y-104989429D01*
X133767990Y-105030036D01*
X133726549Y-105077981D01*
X133714010Y-105097186D01*
X133679456Y-105158122D01*
X133683092Y-110094299D01*
X133686727Y-115030477D01*
X133734372Y-115089633D01*
X133777455Y-115134225D01*
X133827278Y-115173846D01*
X133842130Y-115183171D01*
X133902242Y-115217555D01*
X139013030Y-115217713D01*
X139487021Y-115217718D01*
X139931187Y-115217699D01*
X140346494Y-115217652D01*
X140733904Y-115217572D01*
X141094383Y-115217455D01*
X141428893Y-115217297D01*
X141738400Y-115217092D01*
X142023866Y-115216837D01*
X142286255Y-115216528D01*
X142526533Y-115216159D01*
X142745662Y-115215726D01*
X142944606Y-115215226D01*
X143124331Y-115214652D01*
X143285798Y-115214002D01*
X143429973Y-115213270D01*
X143557820Y-115212452D01*
X143670302Y-115211543D01*
X143768383Y-115210540D01*
X143853027Y-115209438D01*
X143925199Y-115208231D01*
X143985861Y-115206917D01*
X144035979Y-115205490D01*
X144076516Y-115203946D01*
X144108435Y-115202280D01*
X144132702Y-115200489D01*
X144150280Y-115198567D01*
X144162132Y-115196510D01*
X144169223Y-115194314D01*
X144170000Y-115193939D01*
X144232961Y-115151462D01*
X144287363Y-115096931D01*
X144324626Y-115039604D01*
X144332692Y-115018377D01*
X144334377Y-114997441D01*
X144335937Y-114946739D01*
X144337370Y-114866213D01*
X144338678Y-114755801D01*
X144339859Y-114615443D01*
X144340915Y-114445079D01*
X144341845Y-114244650D01*
X144342650Y-114014094D01*
X144343330Y-113753351D01*
X144343884Y-113462362D01*
X144344313Y-113141067D01*
X144344618Y-112789404D01*
X144344797Y-112407314D01*
X144344852Y-111994737D01*
X144344783Y-111551613D01*
X144344589Y-111077881D01*
X144344271Y-110573481D01*
X144343833Y-110043277D01*
X144340422Y-106313120D01*
X143685091Y-106313120D01*
X143676258Y-106328452D01*
X143653156Y-106360615D01*
X143622408Y-106400569D01*
X143552528Y-106499731D01*
X143499896Y-106601223D01*
X143461983Y-106712191D01*
X143436261Y-106839782D01*
X143422072Y-106966910D01*
X143420014Y-107008657D01*
X143418152Y-107080893D01*
X143416488Y-107183319D01*
X143415022Y-107315637D01*
X143413755Y-107477547D01*
X143412688Y-107668751D01*
X143411823Y-107888950D01*
X143411159Y-108137846D01*
X143410698Y-108415140D01*
X143410441Y-108720533D01*
X143410389Y-109053727D01*
X143410543Y-109414423D01*
X143410903Y-109802322D01*
X143411471Y-110217126D01*
X143411654Y-110330485D01*
X143412290Y-110701213D01*
X143412916Y-111042410D01*
X143413545Y-111355331D01*
X143414187Y-111641234D01*
X143414854Y-111901376D01*
X143415558Y-112137012D01*
X143416310Y-112349399D01*
X143417122Y-112539794D01*
X143418006Y-112709452D01*
X143418972Y-112859632D01*
X143420033Y-112991589D01*
X143421199Y-113106579D01*
X143422484Y-113205859D01*
X143423897Y-113290686D01*
X143425451Y-113362316D01*
X143427157Y-113422006D01*
X143429026Y-113471012D01*
X143431071Y-113510591D01*
X143433303Y-113541998D01*
X143435732Y-113566491D01*
X143438372Y-113585327D01*
X143441233Y-113599761D01*
X143441700Y-113601697D01*
X143490062Y-113751740D01*
X143556742Y-113881150D01*
X143613385Y-113959651D01*
X143648106Y-114003275D01*
X143673574Y-114037173D01*
X143684909Y-114054814D01*
X143685091Y-114055601D01*
X143670082Y-114056837D01*
X143626596Y-114058013D01*
X143556942Y-114059115D01*
X143463433Y-114060128D01*
X143348377Y-114061037D01*
X143214086Y-114061828D01*
X143062871Y-114062485D01*
X142897040Y-114062992D01*
X142718906Y-114063337D01*
X142530778Y-114063502D01*
X142460242Y-114063516D01*
X141235393Y-114063516D01*
X141288762Y-113998091D01*
X141371139Y-113874017D01*
X141436590Y-113724787D01*
X141484858Y-113551130D01*
X141515515Y-113355394D01*
X141518494Y-113310447D01*
X141521075Y-113236685D01*
X141523240Y-113136079D01*
X141524973Y-113010597D01*
X141526256Y-112862212D01*
X141527071Y-112692894D01*
X141527400Y-112504613D01*
X141527227Y-112299338D01*
X141526639Y-112104840D01*
X141522242Y-111000529D01*
X141418220Y-111142719D01*
X141377165Y-111198844D01*
X141322485Y-111273606D01*
X141258723Y-111360791D01*
X141190427Y-111454181D01*
X141122142Y-111547563D01*
X141105956Y-111569697D01*
X141033858Y-111668233D01*
X140956398Y-111773986D01*
X140879327Y-111879113D01*
X140808394Y-111975772D01*
X140749350Y-112056119D01*
X140744800Y-112062303D01*
X140619997Y-112231941D01*
X140511539Y-112379423D01*
X140417501Y-112507374D01*
X140335958Y-112618418D01*
X140264985Y-112715181D01*
X140202656Y-112800289D01*
X140147046Y-112876365D01*
X140096231Y-112946034D01*
X140048285Y-113011923D01*
X140039200Y-113024425D01*
X139958091Y-113141584D01*
X139880834Y-113263579D01*
X139810648Y-113384607D01*
X139750756Y-113498867D01*
X139704378Y-113600557D01*
X139676537Y-113677613D01*
X139658809Y-113768193D01*
X139652825Y-113870316D01*
X139659101Y-113967865D01*
X139666019Y-114005788D01*
X139679424Y-114063516D01*
X138341772Y-114063516D01*
X136609245Y-114063516D01*
X135459713Y-114063516D01*
X135274623Y-114063391D01*
X135098759Y-114063032D01*
X134934507Y-114062458D01*
X134784252Y-114061688D01*
X134650378Y-114060742D01*
X134535271Y-114059640D01*
X134441315Y-114058401D01*
X134370896Y-114057046D01*
X134326398Y-114055595D01*
X134310207Y-114054066D01*
X134310181Y-114054002D01*
X134319472Y-114037716D01*
X134342948Y-114007584D01*
X134356392Y-113991858D01*
X134406382Y-113922914D01*
X134454773Y-113834824D01*
X134495629Y-113738927D01*
X134508271Y-113701758D01*
X134511365Y-113689450D01*
X134514199Y-113672225D01*
X134516786Y-113648714D01*
X134519141Y-113617548D01*
X134521279Y-113577359D01*
X134523215Y-113526778D01*
X134524962Y-113464436D01*
X134526536Y-113388963D01*
X134527952Y-113298992D01*
X134529223Y-113193153D01*
X134530365Y-113070078D01*
X134531392Y-112928397D01*
X134532319Y-112766742D01*
X134533160Y-112583744D01*
X134533931Y-112378034D01*
X134534644Y-112148244D01*
X134535317Y-111893004D01*
X134535962Y-111610946D01*
X134536594Y-111300700D01*
X134537165Y-110996273D01*
X134541936Y-108367758D01*
X135565210Y-108367758D01*
X135739601Y-108367884D01*
X135904622Y-108368247D01*
X136057746Y-108368827D01*
X136196444Y-108369601D01*
X136318190Y-108370550D01*
X136420454Y-108371651D01*
X136500710Y-108372883D01*
X136556430Y-108374225D01*
X136585085Y-108375656D01*
X136588485Y-108376358D01*
X136579688Y-108392428D01*
X136557371Y-108423427D01*
X136543046Y-108441782D01*
X136510711Y-108488706D01*
X136476562Y-108548062D01*
X136457802Y-108585917D01*
X136446664Y-108610045D01*
X136436534Y-108632282D01*
X136427367Y-108654122D01*
X136419118Y-108677057D01*
X136411742Y-108702583D01*
X136405194Y-108732192D01*
X136399428Y-108767378D01*
X136394398Y-108809635D01*
X136390060Y-108860456D01*
X136386369Y-108921335D01*
X136383278Y-108993767D01*
X136380742Y-109079243D01*
X136378717Y-109179259D01*
X136377157Y-109295307D01*
X136376016Y-109428882D01*
X136375250Y-109581477D01*
X136374813Y-109754585D01*
X136374659Y-109949701D01*
X136374744Y-110168317D01*
X136375022Y-110411929D01*
X136375447Y-110682029D01*
X136375975Y-110980110D01*
X136376488Y-111266265D01*
X136380666Y-113640182D01*
X136416578Y-113740243D01*
X136453658Y-113829107D01*
X136499080Y-113916197D01*
X136546968Y-113990975D01*
X136577453Y-114028879D01*
X136609245Y-114063516D01*
X138341772Y-114063516D01*
X138141781Y-114063418D01*
X137950842Y-114063135D01*
X137771167Y-114062680D01*
X137604966Y-114062069D01*
X137454451Y-114061314D01*
X137321832Y-114060432D01*
X137209320Y-114059436D01*
X137119126Y-114058340D01*
X137053462Y-114057160D01*
X137014537Y-114055908D01*
X137004121Y-114054825D01*
X137014907Y-114040581D01*
X137041942Y-114015296D01*
X137054151Y-114004993D01*
X137143579Y-113926740D01*
X137236064Y-113835940D01*
X137335780Y-113728255D01*
X137446899Y-113599345D01*
X137464228Y-113578606D01*
X137524766Y-113505734D01*
X137578856Y-113440082D01*
X137628716Y-113378711D01*
X137676570Y-113318685D01*
X137724636Y-113257067D01*
X137775137Y-113190919D01*
X137830292Y-113117305D01*
X137892324Y-113033287D01*
X137963453Y-112935927D01*
X138045899Y-112822289D01*
X138141884Y-112689436D01*
X138251030Y-112538037D01*
X138340937Y-112413500D01*
X138444506Y-112270459D01*
X138557160Y-112115212D01*
X138674320Y-111954059D01*
X138791408Y-111793297D01*
X138903846Y-111639226D01*
X138982837Y-111531213D01*
X139052022Y-111436511D01*
X139126082Y-111334794D01*
X139199065Y-111234261D01*
X139265017Y-111143111D01*
X139312570Y-111077091D01*
X139416363Y-110933014D01*
X139534116Y-110770435D01*
X139661353Y-110595509D01*
X139793598Y-110414391D01*
X139905836Y-110261213D01*
X139973409Y-110169013D01*
X140024712Y-110098410D01*
X140061746Y-110046221D01*
X140086511Y-110009260D01*
X140101008Y-109984345D01*
X140107237Y-109968291D01*
X140107201Y-109957915D01*
X140102898Y-109950033D01*
X140102065Y-109948943D01*
X140089338Y-109932958D01*
X140059601Y-109895825D01*
X140015135Y-109840388D01*
X139958224Y-109769490D01*
X139891151Y-109685976D01*
X139816199Y-109592691D01*
X139742722Y-109501273D01*
X139659575Y-109397770D01*
X139579640Y-109298129D01*
X139505698Y-109205827D01*
X139440530Y-109124341D01*
X139386915Y-109057145D01*
X139347636Y-109007718D01*
X139328606Y-108983566D01*
X139304467Y-108953030D01*
X139263346Y-108901454D01*
X139207589Y-108831764D01*
X139139542Y-108746884D01*
X139061551Y-108649741D01*
X138975963Y-108543259D01*
X138885124Y-108430362D01*
X138820691Y-108350354D01*
X138723176Y-108229297D01*
X138625564Y-108108095D01*
X138530842Y-107990458D01*
X138441995Y-107880094D01*
X138362009Y-107780713D01*
X138293871Y-107696024D01*
X138240565Y-107629736D01*
X138220328Y-107604551D01*
X138085882Y-107437630D01*
X137968080Y-107292467D01*
X137864692Y-107166493D01*
X137773489Y-107057141D01*
X137692243Y-106961842D01*
X137618725Y-106878028D01*
X137550706Y-106803132D01*
X137485956Y-106734585D01*
X137422248Y-106669819D01*
X137357351Y-106606267D01*
X137336803Y-106586562D01*
X137271847Y-106526137D01*
X137206951Y-106468533D01*
X137149010Y-106419697D01*
X137104917Y-106385577D01*
X137099411Y-106381747D01*
X137057962Y-106351938D01*
X137029176Y-106328033D01*
X137019912Y-106316516D01*
X137034870Y-106314764D01*
X137078373Y-106313093D01*
X137148176Y-106311522D01*
X137242036Y-106310073D01*
X137357708Y-106308764D01*
X137492950Y-106307616D01*
X137645517Y-106306649D01*
X137813166Y-106305882D01*
X137993652Y-106305336D01*
X138184733Y-106305030D01*
X138317253Y-106304970D01*
X139614992Y-106304970D01*
X139599921Y-106396098D01*
X139592728Y-106488084D01*
X139603407Y-106570145D01*
X139634671Y-106670549D01*
X139686205Y-106787367D01*
X139755549Y-106916247D01*
X139840244Y-107052839D01*
X139937827Y-107192792D01*
X140006201Y-107282485D01*
X140060220Y-107351256D01*
X140112325Y-107418139D01*
X140157041Y-107476075D01*
X140188896Y-107518001D01*
X140192181Y-107522412D01*
X140220456Y-107559579D01*
X140263117Y-107614472D01*
X140315252Y-107680825D01*
X140371953Y-107752374D01*
X140397259Y-107784109D01*
X140459460Y-107862084D01*
X140533745Y-107955429D01*
X140613127Y-108055347D01*
X140690613Y-108153041D01*
X140738737Y-108213819D01*
X140807105Y-108300112D01*
X140878513Y-108390022D01*
X140947139Y-108476233D01*
X141007163Y-108551431D01*
X141045013Y-108598667D01*
X141102802Y-108671246D01*
X141170283Y-108757023D01*
X141238567Y-108844647D01*
X141292236Y-108914243D01*
X141345076Y-108982536D01*
X141396475Y-109047756D01*
X141440975Y-109103053D01*
X141473115Y-109141574D01*
X141476241Y-109145152D01*
X141530537Y-109206728D01*
X141525378Y-108082970D01*
X141524364Y-107869096D01*
X141523375Y-107683660D01*
X141522345Y-107524310D01*
X141521203Y-107388696D01*
X141519883Y-107274469D01*
X141518314Y-107179276D01*
X141516428Y-107100768D01*
X141514158Y-107036594D01*
X141511434Y-106984405D01*
X141508187Y-106941848D01*
X141504349Y-106906574D01*
X141499852Y-106876232D01*
X141494627Y-106848472D01*
X141488605Y-106820943D01*
X141488542Y-106820667D01*
X141445806Y-106672784D01*
X141388874Y-106535708D01*
X141321534Y-106418265D01*
X141307134Y-106397888D01*
X141278178Y-106356971D01*
X141258484Y-106326325D01*
X141252848Y-106314453D01*
X141267856Y-106312968D01*
X141311332Y-106311554D01*
X141380959Y-106310229D01*
X141474417Y-106309012D01*
X141589389Y-106307921D01*
X141723554Y-106306974D01*
X141874595Y-106306188D01*
X142040192Y-106305582D01*
X142218027Y-106305174D01*
X142405781Y-106304983D01*
X142468969Y-106304970D01*
X142659465Y-106305071D01*
X142840801Y-106305362D01*
X143010657Y-106305829D01*
X143166715Y-106306455D01*
X143306657Y-106307225D01*
X143428163Y-106308125D01*
X143528914Y-106309137D01*
X143606593Y-106310246D01*
X143658880Y-106311438D01*
X143683457Y-106312696D01*
X143685091Y-106313120D01*
X144340422Y-106313120D01*
X144339333Y-105122494D01*
X144291519Y-105063338D01*
X144250705Y-105020135D01*
X144205694Y-104982727D01*
X144191458Y-104973394D01*
X144185611Y-104970134D01*
X144178784Y-104967111D01*
X144169837Y-104964315D01*
X144157626Y-104961736D01*
X144141007Y-104959363D01*
X144118840Y-104957186D01*
X144089980Y-104955196D01*
X144053285Y-104953381D01*
X144007613Y-104951731D01*
X143951820Y-104950237D01*
X143884764Y-104948888D01*
X143805302Y-104947674D01*
X143712291Y-104946584D01*
X143604588Y-104945609D01*
X143481052Y-104944737D01*
X143340538Y-104943960D01*
X143181905Y-104943266D01*
X143004009Y-104942646D01*
X142805708Y-104942088D01*
X142585858Y-104941584D01*
X142343318Y-104941122D01*
X142076945Y-104940693D01*
X141785595Y-104940286D01*
X141468126Y-104939891D01*
X141123396Y-104939497D01*
X140750261Y-104939095D01*
X140347578Y-104938675D01*
X140311702Y-104938638D01*
X136484192Y-104934669D01*
X136458074Y-104853971D01*
X136412061Y-104739150D01*
X136349715Y-104622319D01*
X136277724Y-104514797D01*
X136211333Y-104436484D01*
X136081000Y-104320179D01*
X135943255Y-104232187D01*
X135794328Y-104170841D01*
X135630448Y-104134472D01*
X135502253Y-104122869D01*
X135326758Y-104126574D01*
M02*
