G04 #@! TF.GenerationSoftware,KiCad,Pcbnew,(5.0-dev-4069-g322ce84fb)*
G04 #@! TF.CreationDate,2018-04-09T14:07:30+08:00*
G04 #@! TF.ProjectId,ZZQDap,5A5A514461702E6B696361645F706362,rev?*
G04 #@! TF.SameCoordinates,Original*
G04 #@! TF.FileFunction,Copper,L1,Top,Signal*
G04 #@! TF.FilePolarity,Positive*
%FSLAX46Y46*%
G04 Gerber Fmt 4.6, Leading zero omitted, Abs format (unit mm)*
G04 Created by KiCad (PCBNEW (5.0-dev-4069-g322ce84fb)) date 04/09/18 14:07:30*
%MOMM*%
%LPD*%
G01*
G04 APERTURE LIST*
%ADD10R,0.800000X0.750000*%
%ADD11R,0.800000X0.800000*%
%ADD12R,1.900000X1.200000*%
%ADD13O,1.900000X1.200000*%
%ADD14R,1.900000X1.500000*%
%ADD15C,1.450000*%
%ADD16R,1.350000X0.400000*%
%ADD17O,1.700000X1.700000*%
%ADD18R,1.700000X1.700000*%
%ADD19O,1.000000X1.000000*%
%ADD20R,1.000000X1.000000*%
%ADD21R,0.500000X0.900000*%
%ADD22R,1.060000X0.650000*%
%ADD23R,0.250000X1.300000*%
%ADD24R,1.300000X0.250000*%
%ADD25R,1.600000X0.500000*%
%ADD26C,0.500000*%
%ADD27C,0.380000*%
%ADD28C,0.300000*%
%ADD29C,0.350000*%
%ADD30C,0.152000*%
%ADD31C,0.200000*%
%ADD32C,0.254000*%
G04 APERTURE END LIST*
D10*
X136050000Y-118000000D03*
X137550000Y-118000000D03*
X133150000Y-118000000D03*
X131650000Y-118000000D03*
X135250000Y-110800000D03*
X136750000Y-110800000D03*
X113950000Y-103800000D03*
X112450000Y-103800000D03*
X130750000Y-103000000D03*
X129250000Y-103000000D03*
X122750000Y-103000000D03*
X121250000Y-103000000D03*
X112450000Y-116077852D03*
X113950000Y-116077852D03*
X127050000Y-118000000D03*
X128550000Y-118000000D03*
D11*
X102400000Y-101400000D03*
X104000000Y-101400000D03*
X104000000Y-118600000D03*
X102400000Y-118600000D03*
X141800000Y-116200000D03*
X143400000Y-116200000D03*
D12*
X143500000Y-112900000D03*
X143500000Y-107100000D03*
D13*
X143500000Y-106500000D03*
X143500000Y-113500000D03*
D14*
X143500000Y-111000000D03*
D15*
X140800000Y-107500000D03*
D16*
X140800000Y-110000000D03*
X140800000Y-109350000D03*
X140800000Y-108700000D03*
X140800000Y-111300000D03*
X140800000Y-110650000D03*
D15*
X140800000Y-112500000D03*
D14*
X143500000Y-109000000D03*
D17*
X101860000Y-104920000D03*
X104400000Y-104920000D03*
X101860000Y-107460000D03*
X104400000Y-107460000D03*
X101860000Y-110000000D03*
X104400000Y-110000000D03*
X101860000Y-112540000D03*
X104400000Y-112540000D03*
X101860000Y-115080000D03*
D18*
X104400000Y-115080000D03*
D19*
X143810000Y-101600000D03*
X142540000Y-101600000D03*
X141270000Y-101600000D03*
D20*
X140000000Y-101600000D03*
D21*
X108500000Y-116142852D03*
X110000000Y-116142852D03*
X110000000Y-101400000D03*
X108500000Y-101400000D03*
X108500000Y-118600000D03*
X110000000Y-118600000D03*
X141850000Y-118600000D03*
X143350000Y-118600000D03*
X110000000Y-113685710D03*
X108500000Y-113685710D03*
X110000000Y-111228568D03*
X108500000Y-111228568D03*
X108500000Y-108771426D03*
X110000000Y-108771426D03*
X110000000Y-106314284D03*
X108500000Y-106314284D03*
X112450000Y-113685710D03*
X113950000Y-113685710D03*
X113950000Y-111228568D03*
X112450000Y-111228568D03*
X112450000Y-108771426D03*
X113950000Y-108771426D03*
X113950000Y-106314284D03*
X112450000Y-106314284D03*
X136750000Y-103800000D03*
X135250000Y-103800000D03*
X108500000Y-103857142D03*
X110000000Y-103857142D03*
X125250000Y-103000000D03*
X126750000Y-103000000D03*
D22*
X134900000Y-114950000D03*
X134900000Y-113050000D03*
X137100000Y-113050000D03*
X137100000Y-114000000D03*
X137100000Y-114950000D03*
X134900000Y-107600000D03*
X134900000Y-108550000D03*
X134900000Y-106650000D03*
X137100000Y-106650000D03*
X137100000Y-107600000D03*
X137100000Y-108550000D03*
D23*
X123050000Y-106050000D03*
X123550000Y-106050000D03*
X124050000Y-106050000D03*
X124550000Y-106050000D03*
X125050000Y-106050000D03*
X125550000Y-106050000D03*
X126050000Y-106050000D03*
X126550000Y-106050000D03*
X127050000Y-106050000D03*
X127550000Y-106050000D03*
X128050000Y-106050000D03*
X128550000Y-106050000D03*
D24*
X130150000Y-107650000D03*
X130150000Y-108150000D03*
X130150000Y-108650000D03*
X130150000Y-109150000D03*
X130150000Y-109650000D03*
X130150000Y-110150000D03*
X130150000Y-110650000D03*
X130150000Y-111150000D03*
X130150000Y-111650000D03*
X130150000Y-112150000D03*
X130150000Y-112650000D03*
X130150000Y-113150000D03*
D23*
X128550000Y-114750000D03*
X128050000Y-114750000D03*
X127550000Y-114750000D03*
X127050000Y-114750000D03*
X126550000Y-114750000D03*
X126050000Y-114750000D03*
X125550000Y-114750000D03*
X125050000Y-114750000D03*
X124550000Y-114750000D03*
X124050000Y-114750000D03*
X123550000Y-114750000D03*
X123050000Y-114750000D03*
D24*
X121450000Y-113150000D03*
X121450000Y-112650000D03*
X121450000Y-112150000D03*
X121450000Y-111650000D03*
X121450000Y-111150000D03*
X121450000Y-110650000D03*
X121450000Y-110150000D03*
X121450000Y-109650000D03*
X121450000Y-109150000D03*
X121450000Y-108650000D03*
X121450000Y-108150000D03*
X121450000Y-107650000D03*
D25*
X117800000Y-110200000D03*
X117800000Y-109000000D03*
X117800000Y-107800000D03*
D26*
X118500000Y-104100000D03*
X126000000Y-118000000D03*
X124000000Y-104600000D03*
X128700000Y-108250010D03*
X130800000Y-104000000D03*
X130200000Y-106900000D03*
X127100000Y-113400000D03*
X114000000Y-115400000D03*
X114800000Y-101400000D03*
X114800000Y-106300000D03*
X111400000Y-103800000D03*
X127600000Y-110650000D03*
X128700000Y-110150000D03*
X119300000Y-107400000D03*
X107500000Y-103800000D03*
X110900000Y-101400000D03*
X111302389Y-106340010D03*
X122700000Y-116000000D03*
X115700000Y-116700000D03*
X115700000Y-115800000D03*
X114900000Y-113700000D03*
X114900000Y-111200000D03*
X124050000Y-113400000D03*
X111300000Y-108800000D03*
X138400000Y-114900000D03*
X138500000Y-118000000D03*
X139200000Y-108300000D03*
X139200000Y-107500000D03*
X137700000Y-103800000D03*
X134900000Y-105900000D03*
X140400000Y-103200000D03*
X134100000Y-110800000D03*
X137800000Y-110800000D03*
X122700000Y-111700000D03*
X122700000Y-111000000D03*
X119200000Y-109000000D03*
X120000000Y-105000000D03*
X120000000Y-110600000D03*
X138100000Y-114000000D03*
X138047979Y-107600000D03*
X111200000Y-118600000D03*
X111200000Y-115400000D03*
X133800000Y-107600000D03*
D27*
X118500000Y-103600000D02*
X118500000Y-104000000D01*
X117934999Y-103034999D02*
X118500000Y-103600000D01*
X112722997Y-103550001D02*
X113237999Y-103034999D01*
X113237999Y-103034999D02*
X117934999Y-103034999D01*
X111400000Y-103800000D02*
X111649999Y-103550001D01*
X111649999Y-103550001D02*
X112722997Y-103550001D01*
D28*
X127050000Y-118000000D02*
X126000000Y-118000000D01*
X125600000Y-108800000D02*
X125600000Y-111700000D01*
X125600000Y-108500000D02*
X125600000Y-108800000D01*
X123700000Y-107650000D02*
X125600000Y-107650000D01*
X125600000Y-107650000D02*
X126600000Y-107650000D01*
X125600000Y-108800000D02*
X125600000Y-107650000D01*
X126600000Y-107650000D02*
X126450000Y-107650000D01*
X130150000Y-107650000D02*
X126600000Y-107650000D01*
X123050000Y-106050000D02*
X123050000Y-107000000D01*
X123050000Y-107000000D02*
X123700000Y-107650000D01*
X125600000Y-111700000D02*
X122700000Y-111700000D01*
X128100000Y-111700000D02*
X125600000Y-111700000D01*
X128550000Y-112150000D02*
X128100000Y-111700000D01*
X128550000Y-114750000D02*
X128550000Y-112150000D01*
X130800000Y-104000000D02*
X130800000Y-103050000D01*
X130800000Y-103050000D02*
X130750000Y-103000000D01*
X130150000Y-107650000D02*
X130150000Y-106950000D01*
X130150000Y-106950000D02*
X130200000Y-106900000D01*
X130150000Y-108150000D02*
X128750000Y-108150000D01*
D27*
X129250000Y-103000000D02*
X129250000Y-102245000D01*
X129250000Y-102245000D02*
X128805000Y-101800000D01*
X128805000Y-101800000D02*
X125620000Y-101800000D01*
X125620000Y-101800000D02*
X125250000Y-102170000D01*
X125250000Y-102170000D02*
X125250000Y-103000000D01*
D28*
X127650000Y-113400000D02*
X127200000Y-113400000D01*
X128050000Y-114750000D02*
X128050000Y-113800000D01*
X128050000Y-113800000D02*
X127650000Y-113400000D01*
D27*
X113950000Y-116077852D02*
X113950000Y-115450000D01*
X113950000Y-115450000D02*
X114000000Y-115400000D01*
D29*
X132100000Y-114950000D02*
X129350000Y-114950000D01*
X134900000Y-114950000D02*
X132100000Y-114950000D01*
D27*
X131650000Y-118000000D02*
X131650000Y-117245000D01*
X131650000Y-117245000D02*
X132100000Y-116795000D01*
X132100000Y-116795000D02*
X132100000Y-114950000D01*
X131650000Y-118000000D02*
X128550000Y-118000000D01*
D28*
X116300000Y-101400000D02*
X114900000Y-101400000D01*
X120500000Y-101400000D02*
X116300000Y-101400000D01*
X114800000Y-101400000D02*
X116300000Y-101400000D01*
X114900000Y-101400000D02*
X110900000Y-101400000D01*
X113950000Y-106314284D02*
X114785716Y-106314284D01*
X114785716Y-106314284D02*
X114800000Y-106300000D01*
X112450000Y-103800000D02*
X111400000Y-103800000D01*
D30*
X112506973Y-102433989D02*
X118633989Y-102433989D01*
X118633989Y-102433989D02*
X120800000Y-104600000D01*
X120800000Y-105500000D02*
X119900000Y-106400000D01*
X120648000Y-108150000D02*
X121450000Y-108150000D01*
X119900000Y-106400000D02*
X119900000Y-107402000D01*
X102400000Y-101400000D02*
X102400000Y-101952000D01*
X119900000Y-107402000D02*
X120648000Y-108150000D01*
X103048000Y-102600000D02*
X112340962Y-102600000D01*
X120800000Y-104600000D02*
X120800000Y-105500000D01*
X112340962Y-102600000D02*
X112506973Y-102433989D01*
X102400000Y-101952000D02*
X103048000Y-102600000D01*
X130150000Y-110650000D02*
X129348000Y-110650000D01*
X129348000Y-110650000D02*
X127600000Y-110650000D01*
X130150000Y-110150000D02*
X128700000Y-110150000D01*
D28*
X119300000Y-107100000D02*
X119300000Y-107400000D01*
X119100000Y-106900000D02*
X119300000Y-107100000D01*
X116600000Y-106900000D02*
X119100000Y-106900000D01*
X116300000Y-107200000D02*
X116600000Y-106900000D01*
X116300000Y-109000000D02*
X116300000Y-107200000D01*
X116300000Y-109000000D02*
X116300000Y-111200000D01*
X117800000Y-109000000D02*
X116300000Y-109000000D01*
X116300000Y-111200000D02*
X116700000Y-111600000D01*
X116700000Y-111600000D02*
X119900000Y-111600000D01*
X119900000Y-111600000D02*
X120350000Y-111150000D01*
X120350000Y-111150000D02*
X121450000Y-111150000D01*
D27*
X124000000Y-103000000D02*
X125250000Y-103000000D01*
X122750000Y-103000000D02*
X124000000Y-103000000D01*
D28*
X124000000Y-104650000D02*
X124000000Y-103000000D01*
X123550000Y-106050000D02*
X123550000Y-105100000D01*
X123550000Y-105100000D02*
X124000000Y-104650000D01*
D27*
X120500000Y-101400000D02*
X121250000Y-102150000D01*
X121250000Y-102150000D02*
X121250000Y-103000000D01*
X121400000Y-106000000D02*
X121400000Y-107600000D01*
X121400000Y-103905000D02*
X121400000Y-106000000D01*
X121400000Y-106000000D02*
X123000000Y-106000000D01*
X121250000Y-103000000D02*
X121250000Y-103755000D01*
X121250000Y-103755000D02*
X121400000Y-103905000D01*
X108500000Y-103857142D02*
X107557142Y-103857142D01*
X107557142Y-103857142D02*
X107500000Y-103800000D01*
X110000000Y-101400000D02*
X110900000Y-101400000D01*
X113950000Y-109900000D02*
X113950000Y-111228568D01*
X113950000Y-108771426D02*
X113950000Y-109900000D01*
X113950000Y-109900000D02*
X113850000Y-110000000D01*
X113850000Y-110000000D02*
X104400000Y-110000000D01*
D30*
X110000000Y-106314284D02*
X111276663Y-106314284D01*
X111276663Y-106314284D02*
X111302389Y-106340010D01*
X112450000Y-106314284D02*
X111328115Y-106314284D01*
X111328115Y-106314284D02*
X111302389Y-106340010D01*
X121800000Y-116000000D02*
X122200000Y-116000000D01*
X120800000Y-116000000D02*
X121800000Y-116000000D01*
X122700000Y-116000000D02*
X121800000Y-116000000D01*
X115700000Y-116700000D02*
X122600000Y-116700000D01*
X123500000Y-116100000D02*
X122900000Y-116700000D01*
X122900000Y-116700000D02*
X122600000Y-116700000D01*
X123500000Y-115602000D02*
X123500000Y-116100000D01*
X123550000Y-114750000D02*
X123550000Y-115552000D01*
X123550000Y-115552000D02*
X123500000Y-115602000D01*
X120600000Y-115800000D02*
X120800000Y-116000000D01*
X115700000Y-115800000D02*
X120600000Y-115800000D01*
D27*
X114900000Y-113700000D02*
X113964290Y-113700000D01*
X113964290Y-113700000D02*
X113950000Y-113685710D01*
X113950000Y-111228568D02*
X114871432Y-111228568D01*
X114871432Y-111228568D02*
X114900000Y-111200000D01*
X113950000Y-106314284D02*
X113950000Y-108771426D01*
D30*
X124050000Y-114750000D02*
X124050000Y-113400000D01*
X111300000Y-108800000D02*
X110028574Y-108800000D01*
X110028574Y-108800000D02*
X110000000Y-108771426D01*
X111300000Y-108800000D02*
X112421426Y-108800000D01*
X112421426Y-108800000D02*
X112450000Y-108771426D01*
D27*
X143500000Y-112900000D02*
X143500000Y-107100000D01*
X142620000Y-114600000D02*
X143380000Y-114600000D01*
X143380000Y-114600000D02*
X143500000Y-114480000D01*
X143500000Y-114480000D02*
X143500000Y-113500000D01*
X141800000Y-116200000D02*
X141800000Y-115420000D01*
X141800000Y-115420000D02*
X142620000Y-114600000D01*
X135200000Y-116600000D02*
X134900000Y-116300000D01*
X134900000Y-116300000D02*
X134900000Y-114950000D01*
X138700000Y-116600000D02*
X135200000Y-116600000D01*
X140700000Y-118600000D02*
X138700000Y-116600000D01*
X141850000Y-118600000D02*
X140700000Y-118600000D01*
D28*
X128550000Y-114750000D02*
X128975000Y-114750000D01*
X128975000Y-114750000D02*
X129150000Y-114750000D01*
D27*
X133500000Y-103800000D02*
X132700000Y-103000000D01*
X132700000Y-103000000D02*
X130750000Y-103000000D01*
X135250000Y-103800000D02*
X133500000Y-103800000D01*
D30*
X103048000Y-117400000D02*
X123800000Y-117400000D01*
X102400000Y-118048000D02*
X103048000Y-117400000D01*
X123800000Y-117400000D02*
X124550000Y-116650000D01*
X124550000Y-116650000D02*
X124550000Y-114750000D01*
X134000000Y-105100000D02*
X138200000Y-105100000D01*
X140400000Y-103200000D02*
X138500000Y-105100000D01*
X138500000Y-105100000D02*
X138200000Y-105100000D01*
X123050000Y-114750000D02*
X112912290Y-114750000D01*
X112912290Y-114750000D02*
X112450000Y-114287710D01*
X112450000Y-114287710D02*
X112450000Y-113685710D01*
X118900000Y-112600000D02*
X119450000Y-113150000D01*
X119450000Y-113150000D02*
X121450000Y-113150000D01*
X113219432Y-112600000D02*
X118900000Y-112600000D01*
X112450000Y-111228568D02*
X112450000Y-111830568D01*
X112450000Y-111830568D02*
X113219432Y-112600000D01*
X136750000Y-103800000D02*
X137700000Y-103800000D01*
X134900000Y-106650000D02*
X134900000Y-105900000D01*
D27*
X135900000Y-101600000D02*
X135250000Y-102250000D01*
X140000000Y-101600000D02*
X135900000Y-101600000D01*
X135250000Y-102250000D02*
X135250000Y-103800000D01*
X135250000Y-110800000D02*
X134100000Y-110800000D01*
X136750000Y-110800000D02*
X137800000Y-110800000D01*
X135600000Y-112000000D02*
X135250000Y-111650000D01*
X135250000Y-111650000D02*
X135250000Y-110800000D01*
X138800000Y-112000000D02*
X138800000Y-111555000D01*
X138800000Y-113400000D02*
X138800000Y-112000000D01*
X138800000Y-112000000D02*
X135600000Y-112000000D01*
X138400000Y-118000000D02*
X137550000Y-118000000D01*
D29*
X129350000Y-114950000D02*
X129150000Y-114750000D01*
D28*
X128550000Y-114750000D02*
X128550000Y-115700000D01*
X128550000Y-115700000D02*
X128550000Y-118000000D01*
D31*
X122700000Y-111650000D02*
X121500000Y-111650000D01*
X121500000Y-111600000D02*
X121450000Y-111650000D01*
X122700000Y-111000000D02*
X122550000Y-111150000D01*
X122550000Y-111150000D02*
X121450000Y-111150000D01*
D27*
X117800000Y-109000000D02*
X119197542Y-109000000D01*
X119197542Y-109000000D02*
X119198771Y-109001229D01*
D30*
X118200000Y-105000000D02*
X119200000Y-105000000D01*
X113400000Y-105000000D02*
X118200000Y-105000000D01*
X120000000Y-105000000D02*
X118200000Y-105000000D01*
X120550000Y-110650000D02*
X121400000Y-110650000D01*
X120000000Y-110650000D02*
X120550000Y-110650000D01*
X120000000Y-110600000D02*
X120500000Y-110600000D01*
X120500000Y-110600000D02*
X120550000Y-110650000D01*
X121400000Y-110600000D02*
X121448999Y-110648999D01*
X120000000Y-110600000D02*
X120400000Y-110600000D01*
X113400000Y-105000000D02*
X113800000Y-105000000D01*
X110200000Y-105000000D02*
X113400000Y-105000000D01*
D27*
X137100000Y-114000000D02*
X138119990Y-114000000D01*
D28*
X139200000Y-107600000D02*
X139200000Y-107400000D01*
X140800000Y-107500000D02*
X139300000Y-107500000D01*
X139300000Y-107500000D02*
X139200000Y-107400000D01*
X139200000Y-109000000D02*
X139200000Y-107600000D01*
X140800000Y-108700000D02*
X139825000Y-108700000D01*
X139825000Y-108700000D02*
X139200000Y-108075000D01*
X139200000Y-108075000D02*
X139200000Y-107600000D01*
X140800000Y-109350000D02*
X139550000Y-109350000D01*
X139550000Y-109350000D02*
X139200000Y-109000000D01*
D27*
X137100000Y-107600000D02*
X138047979Y-107600000D01*
X104400000Y-104920000D02*
X101860000Y-104920000D01*
X138800000Y-111555000D02*
X139055000Y-111300000D01*
X138800000Y-114600000D02*
X138450000Y-114950000D01*
X138450000Y-114950000D02*
X137100000Y-114950000D01*
X138800000Y-113400000D02*
X138800000Y-114600000D01*
X138450000Y-113050000D02*
X138800000Y-113400000D01*
X137100000Y-113050000D02*
X138450000Y-113050000D01*
D28*
X140800000Y-111300000D02*
X139055000Y-111300000D01*
D27*
X137100000Y-113050000D02*
X137305000Y-113050000D01*
X139055000Y-111300000D02*
X139692998Y-111300000D01*
X111200000Y-118600000D02*
X110000000Y-118600000D01*
X111200000Y-116077852D02*
X110065000Y-116077852D01*
X112450000Y-116077852D02*
X111200000Y-116077852D01*
X111200000Y-115400000D02*
X111200000Y-115753553D01*
X111200000Y-115753553D02*
X111200000Y-116077852D01*
X134900000Y-107600000D02*
X133800000Y-107600000D01*
X110065000Y-116077852D02*
X110000000Y-116142852D01*
D30*
X110000000Y-104800000D02*
X110200000Y-105000000D01*
X110000000Y-103857142D02*
X110000000Y-104800000D01*
X113800000Y-105000000D02*
X113950000Y-104850000D01*
X113950000Y-104850000D02*
X113950000Y-103800000D01*
X108500000Y-101400000D02*
X104000000Y-101400000D01*
X108500000Y-118600000D02*
X108098000Y-118600000D01*
X108098000Y-118600000D02*
X104000000Y-118600000D01*
X102400000Y-118600000D02*
X102400000Y-118048000D01*
X102400000Y-118048000D02*
X102848000Y-117600000D01*
X143350000Y-118600000D02*
X143350000Y-116250000D01*
X143350000Y-116250000D02*
X143400000Y-116200000D01*
X138673989Y-109217880D02*
X138673989Y-106873989D01*
X138673989Y-106873989D02*
X138450000Y-106650000D01*
X137782000Y-106650000D02*
X137100000Y-106650000D01*
X138450000Y-106650000D02*
X137782000Y-106650000D01*
X139456109Y-110000000D02*
X138673989Y-109217880D01*
X140800000Y-110000000D02*
X139456109Y-110000000D01*
X140800000Y-110650000D02*
X138723000Y-110650000D01*
X138723000Y-110650000D02*
X137100000Y-109027000D01*
X137100000Y-109027000D02*
X137100000Y-108550000D01*
X108500000Y-106314284D02*
X108098000Y-106314284D01*
X108098000Y-106314284D02*
X108017715Y-106233999D01*
X108017715Y-106233999D02*
X103086001Y-106233999D01*
X103086001Y-106233999D02*
X102709999Y-106610001D01*
X102709999Y-106610001D02*
X101860000Y-107460000D01*
X108500000Y-108771426D02*
X103088574Y-108771426D01*
X103088574Y-108771426D02*
X101860000Y-110000000D01*
X108500000Y-111228568D02*
X103171432Y-111228568D01*
X103171432Y-111228568D02*
X101860000Y-112540000D01*
X108500000Y-113685710D02*
X103254290Y-113685710D01*
X103254290Y-113685710D02*
X101860000Y-115080000D01*
X106742852Y-116142852D02*
X105680000Y-115080000D01*
X105680000Y-115080000D02*
X104400000Y-115080000D01*
X108500000Y-116142852D02*
X106742852Y-116142852D01*
X133050000Y-106050000D02*
X134000000Y-105100000D01*
X128550000Y-106050000D02*
X133050000Y-106050000D01*
X132300000Y-108700000D02*
X132900000Y-108100000D01*
X132900000Y-108100000D02*
X132900000Y-106900000D01*
X132900000Y-106900000D02*
X134395989Y-105404011D01*
X139125926Y-105404010D02*
X141270000Y-103259936D01*
X141270000Y-102307106D02*
X141270000Y-101600000D01*
X134395989Y-105404011D02*
X139125926Y-105404010D01*
X131002000Y-108700000D02*
X132300000Y-108700000D01*
X130952000Y-108650000D02*
X131002000Y-108700000D01*
X130150000Y-108650000D02*
X130952000Y-108650000D01*
X141270000Y-103259936D02*
X141270000Y-102307106D01*
X112450000Y-113685710D02*
X112048000Y-113685710D01*
X112048000Y-113685710D02*
X110000000Y-113685710D01*
X112450000Y-111228568D02*
X110000000Y-111228568D01*
X130150000Y-109150000D02*
X132279936Y-109150000D01*
X132279936Y-109150000D02*
X133204011Y-108225925D01*
X133204011Y-108225925D02*
X133204011Y-107245989D01*
X133204011Y-107245989D02*
X133800000Y-106650000D01*
X134218000Y-106650000D02*
X134900000Y-106650000D01*
X133800000Y-106650000D02*
X134218000Y-106650000D01*
X126500000Y-104200000D02*
X126750000Y-103950000D01*
X126750000Y-103950000D02*
X126750000Y-103000000D01*
X126098000Y-104200000D02*
X126500000Y-104200000D01*
X125050000Y-106050000D02*
X125050000Y-105248000D01*
X125050000Y-105248000D02*
X126098000Y-104200000D01*
X130150000Y-109650000D02*
X134277000Y-109650000D01*
X134277000Y-109650000D02*
X134900000Y-109027000D01*
X134900000Y-109027000D02*
X134900000Y-108550000D01*
X119400000Y-110000000D02*
X119200000Y-110200000D01*
X119200000Y-110200000D02*
X117800000Y-110200000D01*
X120498000Y-110000000D02*
X119400000Y-110000000D01*
X121450000Y-110150000D02*
X120648000Y-110150000D01*
X120648000Y-110150000D02*
X120498000Y-110000000D01*
X120648000Y-109650000D02*
X118798000Y-107800000D01*
X121450000Y-109650000D02*
X120648000Y-109650000D01*
X118798000Y-107800000D02*
X117800000Y-107800000D01*
D32*
G36*
X134075000Y-115841596D02*
X134075000Y-116218752D01*
X134058839Y-116300000D01*
X134075000Y-116381247D01*
X134075000Y-116381250D01*
X134122868Y-116621898D01*
X134305209Y-116894791D01*
X134374092Y-116940817D01*
X134559184Y-117125909D01*
X134605209Y-117194791D01*
X134878101Y-117377132D01*
X135051097Y-117411543D01*
X135015000Y-117498690D01*
X135015000Y-117714250D01*
X135173750Y-117873000D01*
X135923000Y-117873000D01*
X135923000Y-117853000D01*
X136177000Y-117853000D01*
X136177000Y-117873000D01*
X136197000Y-117873000D01*
X136197000Y-118127000D01*
X136177000Y-118127000D01*
X136177000Y-118851250D01*
X136335750Y-119010000D01*
X136576309Y-119010000D01*
X136809698Y-118913327D01*
X136810898Y-118912127D01*
X136902235Y-118973157D01*
X137150000Y-119022440D01*
X137950000Y-119022440D01*
X138197765Y-118973157D01*
X138329700Y-118885000D01*
X138676037Y-118885000D01*
X139001312Y-118750267D01*
X139250267Y-118501312D01*
X139304253Y-118370979D01*
X140059186Y-119125913D01*
X140105209Y-119194791D01*
X140174087Y-119240814D01*
X140174089Y-119240816D01*
X140247698Y-119290000D01*
X111761579Y-119290000D01*
X111950267Y-119101312D01*
X112085000Y-118776037D01*
X112085000Y-118423963D01*
X112027751Y-118285750D01*
X126015000Y-118285750D01*
X126015000Y-118501310D01*
X126111673Y-118734699D01*
X126290302Y-118913327D01*
X126523691Y-119010000D01*
X126764250Y-119010000D01*
X126923000Y-118851250D01*
X126923000Y-118127000D01*
X126173750Y-118127000D01*
X126015000Y-118285750D01*
X112027751Y-118285750D01*
X111955367Y-118111000D01*
X123729979Y-118111000D01*
X123800000Y-118124928D01*
X123870021Y-118111000D01*
X123870026Y-118111000D01*
X124077418Y-118069747D01*
X124312602Y-117912602D01*
X124352269Y-117853236D01*
X124706815Y-117498690D01*
X126015000Y-117498690D01*
X126015000Y-117714250D01*
X126173750Y-117873000D01*
X126923000Y-117873000D01*
X126923000Y-117148750D01*
X126764250Y-116990000D01*
X126523691Y-116990000D01*
X126290302Y-117086673D01*
X126111673Y-117265301D01*
X126015000Y-117498690D01*
X124706815Y-117498690D01*
X125003240Y-117202266D01*
X125062601Y-117162602D01*
X125102265Y-117103241D01*
X125102268Y-117103238D01*
X125206821Y-116946763D01*
X125219747Y-116927418D01*
X125261000Y-116720026D01*
X125261000Y-116720022D01*
X125274928Y-116650001D01*
X125261000Y-116579980D01*
X125261000Y-116030334D01*
X125300000Y-116022576D01*
X125425000Y-116047440D01*
X125675000Y-116047440D01*
X125800000Y-116022576D01*
X125925000Y-116047440D01*
X126175000Y-116047440D01*
X126300000Y-116022576D01*
X126425000Y-116047440D01*
X126675000Y-116047440D01*
X126800000Y-116022576D01*
X126925000Y-116047440D01*
X127175000Y-116047440D01*
X127300000Y-116022576D01*
X127425000Y-116047440D01*
X127675000Y-116047440D01*
X127765000Y-116029538D01*
X127765001Y-117068159D01*
X127576309Y-116990000D01*
X127335750Y-116990000D01*
X127177000Y-117148750D01*
X127177000Y-117873000D01*
X127197000Y-117873000D01*
X127197000Y-118127000D01*
X127177000Y-118127000D01*
X127177000Y-118851250D01*
X127335750Y-119010000D01*
X127576309Y-119010000D01*
X127809698Y-118913327D01*
X127810898Y-118912127D01*
X127902235Y-118973157D01*
X128150000Y-119022440D01*
X128950000Y-119022440D01*
X129197765Y-118973157D01*
X129407809Y-118832809D01*
X129413027Y-118825000D01*
X130786973Y-118825000D01*
X130792191Y-118832809D01*
X131002235Y-118973157D01*
X131250000Y-119022440D01*
X132050000Y-119022440D01*
X132297765Y-118973157D01*
X132389102Y-118912127D01*
X132390302Y-118913327D01*
X132623691Y-119010000D01*
X132864250Y-119010000D01*
X133023000Y-118851250D01*
X133023000Y-118127000D01*
X133277000Y-118127000D01*
X133277000Y-118851250D01*
X133435750Y-119010000D01*
X133676309Y-119010000D01*
X133909698Y-118913327D01*
X134088327Y-118734699D01*
X134185000Y-118501310D01*
X134185000Y-118285750D01*
X135015000Y-118285750D01*
X135015000Y-118501310D01*
X135111673Y-118734699D01*
X135290302Y-118913327D01*
X135523691Y-119010000D01*
X135764250Y-119010000D01*
X135923000Y-118851250D01*
X135923000Y-118127000D01*
X135173750Y-118127000D01*
X135015000Y-118285750D01*
X134185000Y-118285750D01*
X134026250Y-118127000D01*
X133277000Y-118127000D01*
X133023000Y-118127000D01*
X133003000Y-118127000D01*
X133003000Y-117873000D01*
X133023000Y-117873000D01*
X133023000Y-117148750D01*
X133277000Y-117148750D01*
X133277000Y-117873000D01*
X134026250Y-117873000D01*
X134185000Y-117714250D01*
X134185000Y-117498690D01*
X134088327Y-117265301D01*
X133909698Y-117086673D01*
X133676309Y-116990000D01*
X133435750Y-116990000D01*
X133277000Y-117148750D01*
X133023000Y-117148750D01*
X132896049Y-117021799D01*
X132925000Y-116876251D01*
X132925000Y-116876248D01*
X132941161Y-116795001D01*
X132925000Y-116713753D01*
X132925000Y-115760000D01*
X133952885Y-115760000D01*
X134075000Y-115841596D01*
X134075000Y-115841596D01*
G37*
X134075000Y-115841596D02*
X134075000Y-116218752D01*
X134058839Y-116300000D01*
X134075000Y-116381247D01*
X134075000Y-116381250D01*
X134122868Y-116621898D01*
X134305209Y-116894791D01*
X134374092Y-116940817D01*
X134559184Y-117125909D01*
X134605209Y-117194791D01*
X134878101Y-117377132D01*
X135051097Y-117411543D01*
X135015000Y-117498690D01*
X135015000Y-117714250D01*
X135173750Y-117873000D01*
X135923000Y-117873000D01*
X135923000Y-117853000D01*
X136177000Y-117853000D01*
X136177000Y-117873000D01*
X136197000Y-117873000D01*
X136197000Y-118127000D01*
X136177000Y-118127000D01*
X136177000Y-118851250D01*
X136335750Y-119010000D01*
X136576309Y-119010000D01*
X136809698Y-118913327D01*
X136810898Y-118912127D01*
X136902235Y-118973157D01*
X137150000Y-119022440D01*
X137950000Y-119022440D01*
X138197765Y-118973157D01*
X138329700Y-118885000D01*
X138676037Y-118885000D01*
X139001312Y-118750267D01*
X139250267Y-118501312D01*
X139304253Y-118370979D01*
X140059186Y-119125913D01*
X140105209Y-119194791D01*
X140174087Y-119240814D01*
X140174089Y-119240816D01*
X140247698Y-119290000D01*
X111761579Y-119290000D01*
X111950267Y-119101312D01*
X112085000Y-118776037D01*
X112085000Y-118423963D01*
X112027751Y-118285750D01*
X126015000Y-118285750D01*
X126015000Y-118501310D01*
X126111673Y-118734699D01*
X126290302Y-118913327D01*
X126523691Y-119010000D01*
X126764250Y-119010000D01*
X126923000Y-118851250D01*
X126923000Y-118127000D01*
X126173750Y-118127000D01*
X126015000Y-118285750D01*
X112027751Y-118285750D01*
X111955367Y-118111000D01*
X123729979Y-118111000D01*
X123800000Y-118124928D01*
X123870021Y-118111000D01*
X123870026Y-118111000D01*
X124077418Y-118069747D01*
X124312602Y-117912602D01*
X124352269Y-117853236D01*
X124706815Y-117498690D01*
X126015000Y-117498690D01*
X126015000Y-117714250D01*
X126173750Y-117873000D01*
X126923000Y-117873000D01*
X126923000Y-117148750D01*
X126764250Y-116990000D01*
X126523691Y-116990000D01*
X126290302Y-117086673D01*
X126111673Y-117265301D01*
X126015000Y-117498690D01*
X124706815Y-117498690D01*
X125003240Y-117202266D01*
X125062601Y-117162602D01*
X125102265Y-117103241D01*
X125102268Y-117103238D01*
X125206821Y-116946763D01*
X125219747Y-116927418D01*
X125261000Y-116720026D01*
X125261000Y-116720022D01*
X125274928Y-116650001D01*
X125261000Y-116579980D01*
X125261000Y-116030334D01*
X125300000Y-116022576D01*
X125425000Y-116047440D01*
X125675000Y-116047440D01*
X125800000Y-116022576D01*
X125925000Y-116047440D01*
X126175000Y-116047440D01*
X126300000Y-116022576D01*
X126425000Y-116047440D01*
X126675000Y-116047440D01*
X126800000Y-116022576D01*
X126925000Y-116047440D01*
X127175000Y-116047440D01*
X127300000Y-116022576D01*
X127425000Y-116047440D01*
X127675000Y-116047440D01*
X127765000Y-116029538D01*
X127765001Y-117068159D01*
X127576309Y-116990000D01*
X127335750Y-116990000D01*
X127177000Y-117148750D01*
X127177000Y-117873000D01*
X127197000Y-117873000D01*
X127197000Y-118127000D01*
X127177000Y-118127000D01*
X127177000Y-118851250D01*
X127335750Y-119010000D01*
X127576309Y-119010000D01*
X127809698Y-118913327D01*
X127810898Y-118912127D01*
X127902235Y-118973157D01*
X128150000Y-119022440D01*
X128950000Y-119022440D01*
X129197765Y-118973157D01*
X129407809Y-118832809D01*
X129413027Y-118825000D01*
X130786973Y-118825000D01*
X130792191Y-118832809D01*
X131002235Y-118973157D01*
X131250000Y-119022440D01*
X132050000Y-119022440D01*
X132297765Y-118973157D01*
X132389102Y-118912127D01*
X132390302Y-118913327D01*
X132623691Y-119010000D01*
X132864250Y-119010000D01*
X133023000Y-118851250D01*
X133023000Y-118127000D01*
X133277000Y-118127000D01*
X133277000Y-118851250D01*
X133435750Y-119010000D01*
X133676309Y-119010000D01*
X133909698Y-118913327D01*
X134088327Y-118734699D01*
X134185000Y-118501310D01*
X134185000Y-118285750D01*
X135015000Y-118285750D01*
X135015000Y-118501310D01*
X135111673Y-118734699D01*
X135290302Y-118913327D01*
X135523691Y-119010000D01*
X135764250Y-119010000D01*
X135923000Y-118851250D01*
X135923000Y-118127000D01*
X135173750Y-118127000D01*
X135015000Y-118285750D01*
X134185000Y-118285750D01*
X134026250Y-118127000D01*
X133277000Y-118127000D01*
X133023000Y-118127000D01*
X133003000Y-118127000D01*
X133003000Y-117873000D01*
X133023000Y-117873000D01*
X133023000Y-117148750D01*
X133277000Y-117148750D01*
X133277000Y-117873000D01*
X134026250Y-117873000D01*
X134185000Y-117714250D01*
X134185000Y-117498690D01*
X134088327Y-117265301D01*
X133909698Y-117086673D01*
X133676309Y-116990000D01*
X133435750Y-116990000D01*
X133277000Y-117148750D01*
X133023000Y-117148750D01*
X132896049Y-117021799D01*
X132925000Y-116876251D01*
X132925000Y-116876248D01*
X132941161Y-116795001D01*
X132925000Y-116713753D01*
X132925000Y-115760000D01*
X133952885Y-115760000D01*
X134075000Y-115841596D01*
G36*
X143937000Y-101473000D02*
X143957000Y-101473000D01*
X143957000Y-101727000D01*
X143937000Y-101727000D01*
X143937000Y-102567954D01*
X144111874Y-102694119D01*
X144290000Y-102620346D01*
X144290000Y-105361419D01*
X143977000Y-105265000D01*
X143627000Y-105265000D01*
X143627000Y-108873000D01*
X143647000Y-108873000D01*
X143647000Y-109127000D01*
X143627000Y-109127000D01*
X143627000Y-110873000D01*
X143647000Y-110873000D01*
X143647000Y-111127000D01*
X143627000Y-111127000D01*
X143627000Y-114735000D01*
X143977000Y-114735000D01*
X144290001Y-114638581D01*
X144290001Y-115390369D01*
X144257809Y-115342191D01*
X144047765Y-115201843D01*
X143800000Y-115152560D01*
X143000000Y-115152560D01*
X142752235Y-115201843D01*
X142600953Y-115302927D01*
X142559698Y-115261673D01*
X142326309Y-115165000D01*
X142085750Y-115165000D01*
X141927000Y-115323750D01*
X141927000Y-116073000D01*
X141947000Y-116073000D01*
X141947000Y-116327000D01*
X141927000Y-116327000D01*
X141927000Y-117076250D01*
X142085750Y-117235000D01*
X142326309Y-117235000D01*
X142559698Y-117138327D01*
X142600953Y-117097073D01*
X142639001Y-117122496D01*
X142639000Y-117696966D01*
X142600000Y-117755334D01*
X142557809Y-117692191D01*
X142347765Y-117551843D01*
X142100000Y-117502560D01*
X141600000Y-117502560D01*
X141352235Y-117551843D01*
X141142191Y-117692191D01*
X141086859Y-117775000D01*
X141041727Y-117775000D01*
X139752477Y-116485750D01*
X140765000Y-116485750D01*
X140765000Y-116726310D01*
X140861673Y-116959699D01*
X141040302Y-117138327D01*
X141273691Y-117235000D01*
X141514250Y-117235000D01*
X141673000Y-117076250D01*
X141673000Y-116327000D01*
X140923750Y-116327000D01*
X140765000Y-116485750D01*
X139752477Y-116485750D01*
X139340818Y-116074092D01*
X139294791Y-116005209D01*
X139021899Y-115822868D01*
X138781251Y-115775000D01*
X138781247Y-115775000D01*
X138700000Y-115758839D01*
X138618753Y-115775000D01*
X138600179Y-115775000D01*
X138663861Y-115748622D01*
X138771899Y-115727132D01*
X138851880Y-115673690D01*
X140765000Y-115673690D01*
X140765000Y-115914250D01*
X140923750Y-116073000D01*
X141673000Y-116073000D01*
X141673000Y-115323750D01*
X141514250Y-115165000D01*
X141273691Y-115165000D01*
X141040302Y-115261673D01*
X140861673Y-115440301D01*
X140765000Y-115673690D01*
X138851880Y-115673690D01*
X138863488Y-115665934D01*
X138901312Y-115650267D01*
X138930262Y-115621317D01*
X139044791Y-115544791D01*
X139090818Y-115475907D01*
X139325907Y-115240818D01*
X139394791Y-115194791D01*
X139577132Y-114921899D01*
X139625000Y-114681251D01*
X139625000Y-114681248D01*
X139641161Y-114600000D01*
X139625000Y-114518753D01*
X139625000Y-113481247D01*
X139630539Y-113453398D01*
X140026207Y-113453398D01*
X140091122Y-113691753D01*
X140601146Y-113872312D01*
X141141444Y-113843949D01*
X141508878Y-113691753D01*
X141573793Y-113453398D01*
X140800000Y-112679605D01*
X140026207Y-113453398D01*
X139630539Y-113453398D01*
X139641161Y-113400000D01*
X139625000Y-113318750D01*
X139625000Y-113213441D01*
X139846602Y-113273793D01*
X140620395Y-112500000D01*
X140606253Y-112485858D01*
X140785858Y-112306253D01*
X140800000Y-112320395D01*
X140814143Y-112306253D01*
X140993748Y-112485858D01*
X140979605Y-112500000D01*
X141753398Y-113273793D01*
X141915000Y-113229781D01*
X141915000Y-113626309D01*
X141979625Y-113782328D01*
X141956538Y-113817609D01*
X141960408Y-113855281D01*
X142186920Y-114283474D01*
X142560053Y-114592390D01*
X143023000Y-114735000D01*
X143373000Y-114735000D01*
X143373000Y-111127000D01*
X143353000Y-111127000D01*
X143353000Y-110873000D01*
X143373000Y-110873000D01*
X143373000Y-109127000D01*
X143353000Y-109127000D01*
X143353000Y-108873000D01*
X143373000Y-108873000D01*
X143373000Y-105265000D01*
X143023000Y-105265000D01*
X142560053Y-105407610D01*
X142186920Y-105716526D01*
X141960408Y-106144719D01*
X141956538Y-106182391D01*
X141979625Y-106217672D01*
X141915000Y-106373691D01*
X141915000Y-106770219D01*
X141753398Y-106726207D01*
X140979605Y-107500000D01*
X140993748Y-107514143D01*
X140814143Y-107693748D01*
X140800000Y-107679605D01*
X140785858Y-107693748D01*
X140606253Y-107514143D01*
X140620395Y-107500000D01*
X139846602Y-106726207D01*
X139608247Y-106791122D01*
X139427688Y-107301146D01*
X139456051Y-107841444D01*
X139583257Y-108148548D01*
X139490000Y-108373691D01*
X139490000Y-108441250D01*
X139648750Y-108600000D01*
X139793482Y-108600000D01*
X139765301Y-108611673D01*
X139586673Y-108790302D01*
X139535920Y-108912830D01*
X139490000Y-108958750D01*
X139490000Y-109028386D01*
X139384989Y-108923375D01*
X139384989Y-106944009D01*
X139398917Y-106873988D01*
X139384989Y-106803968D01*
X139384989Y-106803963D01*
X139343736Y-106596571D01*
X139310348Y-106546602D01*
X140026207Y-106546602D01*
X140800000Y-107320395D01*
X141573793Y-106546602D01*
X141508878Y-106308247D01*
X140998854Y-106127688D01*
X140458556Y-106156051D01*
X140091122Y-106308247D01*
X140026207Y-106546602D01*
X139310348Y-106546602D01*
X139186591Y-106361387D01*
X139127225Y-106321720D01*
X139002269Y-106196764D01*
X138962602Y-106137398D01*
X138929095Y-106115009D01*
X139055901Y-106115009D01*
X139125926Y-106128938D01*
X139403344Y-106073756D01*
X139579163Y-105956278D01*
X139579165Y-105956276D01*
X139638528Y-105916611D01*
X139678193Y-105857248D01*
X141723241Y-103812201D01*
X141782601Y-103772538D01*
X141822265Y-103713177D01*
X141822269Y-103713173D01*
X141939747Y-103537355D01*
X141994929Y-103259936D01*
X141981000Y-103189910D01*
X141981000Y-102591540D01*
X142097145Y-102669146D01*
X142428217Y-102735000D01*
X142651783Y-102735000D01*
X142982855Y-102669146D01*
X143186910Y-102532801D01*
X143249791Y-102587127D01*
X143508126Y-102694119D01*
X143683000Y-102567954D01*
X143683000Y-101727000D01*
X143671973Y-101727000D01*
X143697235Y-101600000D01*
X143671973Y-101473000D01*
X143683000Y-101473000D01*
X143683000Y-101453000D01*
X143937000Y-101453000D01*
X143937000Y-101473000D01*
X143937000Y-101473000D01*
G37*
X143937000Y-101473000D02*
X143957000Y-101473000D01*
X143957000Y-101727000D01*
X143937000Y-101727000D01*
X143937000Y-102567954D01*
X144111874Y-102694119D01*
X144290000Y-102620346D01*
X144290000Y-105361419D01*
X143977000Y-105265000D01*
X143627000Y-105265000D01*
X143627000Y-108873000D01*
X143647000Y-108873000D01*
X143647000Y-109127000D01*
X143627000Y-109127000D01*
X143627000Y-110873000D01*
X143647000Y-110873000D01*
X143647000Y-111127000D01*
X143627000Y-111127000D01*
X143627000Y-114735000D01*
X143977000Y-114735000D01*
X144290001Y-114638581D01*
X144290001Y-115390369D01*
X144257809Y-115342191D01*
X144047765Y-115201843D01*
X143800000Y-115152560D01*
X143000000Y-115152560D01*
X142752235Y-115201843D01*
X142600953Y-115302927D01*
X142559698Y-115261673D01*
X142326309Y-115165000D01*
X142085750Y-115165000D01*
X141927000Y-115323750D01*
X141927000Y-116073000D01*
X141947000Y-116073000D01*
X141947000Y-116327000D01*
X141927000Y-116327000D01*
X141927000Y-117076250D01*
X142085750Y-117235000D01*
X142326309Y-117235000D01*
X142559698Y-117138327D01*
X142600953Y-117097073D01*
X142639001Y-117122496D01*
X142639000Y-117696966D01*
X142600000Y-117755334D01*
X142557809Y-117692191D01*
X142347765Y-117551843D01*
X142100000Y-117502560D01*
X141600000Y-117502560D01*
X141352235Y-117551843D01*
X141142191Y-117692191D01*
X141086859Y-117775000D01*
X141041727Y-117775000D01*
X139752477Y-116485750D01*
X140765000Y-116485750D01*
X140765000Y-116726310D01*
X140861673Y-116959699D01*
X141040302Y-117138327D01*
X141273691Y-117235000D01*
X141514250Y-117235000D01*
X141673000Y-117076250D01*
X141673000Y-116327000D01*
X140923750Y-116327000D01*
X140765000Y-116485750D01*
X139752477Y-116485750D01*
X139340818Y-116074092D01*
X139294791Y-116005209D01*
X139021899Y-115822868D01*
X138781251Y-115775000D01*
X138781247Y-115775000D01*
X138700000Y-115758839D01*
X138618753Y-115775000D01*
X138600179Y-115775000D01*
X138663861Y-115748622D01*
X138771899Y-115727132D01*
X138851880Y-115673690D01*
X140765000Y-115673690D01*
X140765000Y-115914250D01*
X140923750Y-116073000D01*
X141673000Y-116073000D01*
X141673000Y-115323750D01*
X141514250Y-115165000D01*
X141273691Y-115165000D01*
X141040302Y-115261673D01*
X140861673Y-115440301D01*
X140765000Y-115673690D01*
X138851880Y-115673690D01*
X138863488Y-115665934D01*
X138901312Y-115650267D01*
X138930262Y-115621317D01*
X139044791Y-115544791D01*
X139090818Y-115475907D01*
X139325907Y-115240818D01*
X139394791Y-115194791D01*
X139577132Y-114921899D01*
X139625000Y-114681251D01*
X139625000Y-114681248D01*
X139641161Y-114600000D01*
X139625000Y-114518753D01*
X139625000Y-113481247D01*
X139630539Y-113453398D01*
X140026207Y-113453398D01*
X140091122Y-113691753D01*
X140601146Y-113872312D01*
X141141444Y-113843949D01*
X141508878Y-113691753D01*
X141573793Y-113453398D01*
X140800000Y-112679605D01*
X140026207Y-113453398D01*
X139630539Y-113453398D01*
X139641161Y-113400000D01*
X139625000Y-113318750D01*
X139625000Y-113213441D01*
X139846602Y-113273793D01*
X140620395Y-112500000D01*
X140606253Y-112485858D01*
X140785858Y-112306253D01*
X140800000Y-112320395D01*
X140814143Y-112306253D01*
X140993748Y-112485858D01*
X140979605Y-112500000D01*
X141753398Y-113273793D01*
X141915000Y-113229781D01*
X141915000Y-113626309D01*
X141979625Y-113782328D01*
X141956538Y-113817609D01*
X141960408Y-113855281D01*
X142186920Y-114283474D01*
X142560053Y-114592390D01*
X143023000Y-114735000D01*
X143373000Y-114735000D01*
X143373000Y-111127000D01*
X143353000Y-111127000D01*
X143353000Y-110873000D01*
X143373000Y-110873000D01*
X143373000Y-109127000D01*
X143353000Y-109127000D01*
X143353000Y-108873000D01*
X143373000Y-108873000D01*
X143373000Y-105265000D01*
X143023000Y-105265000D01*
X142560053Y-105407610D01*
X142186920Y-105716526D01*
X141960408Y-106144719D01*
X141956538Y-106182391D01*
X141979625Y-106217672D01*
X141915000Y-106373691D01*
X141915000Y-106770219D01*
X141753398Y-106726207D01*
X140979605Y-107500000D01*
X140993748Y-107514143D01*
X140814143Y-107693748D01*
X140800000Y-107679605D01*
X140785858Y-107693748D01*
X140606253Y-107514143D01*
X140620395Y-107500000D01*
X139846602Y-106726207D01*
X139608247Y-106791122D01*
X139427688Y-107301146D01*
X139456051Y-107841444D01*
X139583257Y-108148548D01*
X139490000Y-108373691D01*
X139490000Y-108441250D01*
X139648750Y-108600000D01*
X139793482Y-108600000D01*
X139765301Y-108611673D01*
X139586673Y-108790302D01*
X139535920Y-108912830D01*
X139490000Y-108958750D01*
X139490000Y-109028386D01*
X139384989Y-108923375D01*
X139384989Y-106944009D01*
X139398917Y-106873988D01*
X139384989Y-106803968D01*
X139384989Y-106803963D01*
X139343736Y-106596571D01*
X139310348Y-106546602D01*
X140026207Y-106546602D01*
X140800000Y-107320395D01*
X141573793Y-106546602D01*
X141508878Y-106308247D01*
X140998854Y-106127688D01*
X140458556Y-106156051D01*
X140091122Y-106308247D01*
X140026207Y-106546602D01*
X139310348Y-106546602D01*
X139186591Y-106361387D01*
X139127225Y-106321720D01*
X139002269Y-106196764D01*
X138962602Y-106137398D01*
X138929095Y-106115009D01*
X139055901Y-106115009D01*
X139125926Y-106128938D01*
X139403344Y-106073756D01*
X139579163Y-105956278D01*
X139579165Y-105956276D01*
X139638528Y-105916611D01*
X139678193Y-105857248D01*
X141723241Y-103812201D01*
X141782601Y-103772538D01*
X141822265Y-103713177D01*
X141822269Y-103713173D01*
X141939747Y-103537355D01*
X141994929Y-103259936D01*
X141981000Y-103189910D01*
X141981000Y-102591540D01*
X142097145Y-102669146D01*
X142428217Y-102735000D01*
X142651783Y-102735000D01*
X142982855Y-102669146D01*
X143186910Y-102532801D01*
X143249791Y-102587127D01*
X143508126Y-102694119D01*
X143683000Y-102567954D01*
X143683000Y-101727000D01*
X143671973Y-101727000D01*
X143697235Y-101600000D01*
X143671973Y-101473000D01*
X143683000Y-101473000D01*
X143683000Y-101453000D01*
X143937000Y-101453000D01*
X143937000Y-101473000D01*
G36*
X114077000Y-115950852D02*
X114097000Y-115950852D01*
X114097000Y-116204852D01*
X114077000Y-116204852D01*
X114077000Y-116224852D01*
X113823000Y-116224852D01*
X113823000Y-116204852D01*
X113803000Y-116204852D01*
X113803000Y-115950852D01*
X113823000Y-115950852D01*
X113823000Y-115930852D01*
X114077000Y-115930852D01*
X114077000Y-115950852D01*
X114077000Y-115950852D01*
G37*
X114077000Y-115950852D02*
X114097000Y-115950852D01*
X114097000Y-116204852D01*
X114077000Y-116204852D01*
X114077000Y-116224852D01*
X113823000Y-116224852D01*
X113823000Y-116204852D01*
X113803000Y-116204852D01*
X113803000Y-115950852D01*
X113823000Y-115950852D01*
X113823000Y-115930852D01*
X114077000Y-115930852D01*
X114077000Y-115950852D01*
G36*
X125600000Y-112500379D02*
X125677316Y-112485000D01*
X127765001Y-112485000D01*
X127765000Y-113470462D01*
X127675000Y-113452560D01*
X127425000Y-113452560D01*
X127300000Y-113477424D01*
X127175000Y-113452560D01*
X126925000Y-113452560D01*
X126800000Y-113477424D01*
X126675000Y-113452560D01*
X126425000Y-113452560D01*
X126300000Y-113477424D01*
X126175000Y-113452560D01*
X125925000Y-113452560D01*
X125800000Y-113477424D01*
X125675000Y-113452560D01*
X125425000Y-113452560D01*
X125300000Y-113477424D01*
X125175000Y-113452560D01*
X124935000Y-113452560D01*
X124935000Y-113223963D01*
X124800267Y-112898688D01*
X124551312Y-112649733D01*
X124226037Y-112515000D01*
X123873963Y-112515000D01*
X123548688Y-112649733D01*
X123299733Y-112898688D01*
X123165000Y-113223963D01*
X123165000Y-113452560D01*
X122925000Y-113452560D01*
X122703352Y-113496648D01*
X122747440Y-113275000D01*
X122747440Y-113025000D01*
X122722576Y-112900000D01*
X122747440Y-112775000D01*
X122747440Y-112585000D01*
X122876037Y-112585000D01*
X123117459Y-112485000D01*
X125522684Y-112485000D01*
X125600000Y-112500379D01*
X125600000Y-112500379D01*
G37*
X125600000Y-112500379D02*
X125677316Y-112485000D01*
X127765001Y-112485000D01*
X127765000Y-113470462D01*
X127675000Y-113452560D01*
X127425000Y-113452560D01*
X127300000Y-113477424D01*
X127175000Y-113452560D01*
X126925000Y-113452560D01*
X126800000Y-113477424D01*
X126675000Y-113452560D01*
X126425000Y-113452560D01*
X126300000Y-113477424D01*
X126175000Y-113452560D01*
X125925000Y-113452560D01*
X125800000Y-113477424D01*
X125675000Y-113452560D01*
X125425000Y-113452560D01*
X125300000Y-113477424D01*
X125175000Y-113452560D01*
X124935000Y-113452560D01*
X124935000Y-113223963D01*
X124800267Y-112898688D01*
X124551312Y-112649733D01*
X124226037Y-112515000D01*
X123873963Y-112515000D01*
X123548688Y-112649733D01*
X123299733Y-112898688D01*
X123165000Y-113223963D01*
X123165000Y-113452560D01*
X122925000Y-113452560D01*
X122703352Y-113496648D01*
X122747440Y-113275000D01*
X122747440Y-113025000D01*
X122722576Y-112900000D01*
X122747440Y-112775000D01*
X122747440Y-112585000D01*
X122876037Y-112585000D01*
X123117459Y-112485000D01*
X125522684Y-112485000D01*
X125600000Y-112500379D01*
G36*
X119498688Y-105750267D02*
X119530890Y-105763605D01*
X119446762Y-105847733D01*
X119387398Y-105887399D01*
X119347733Y-105946762D01*
X119347732Y-105946763D01*
X119312160Y-106000000D01*
X119230253Y-106122583D01*
X119189000Y-106329975D01*
X119189000Y-106329979D01*
X119175072Y-106400000D01*
X119189000Y-106470021D01*
X119189001Y-107206146D01*
X119089552Y-107139697D01*
X119057809Y-107092191D01*
X118847765Y-106951843D01*
X118600000Y-106902560D01*
X117000000Y-106902560D01*
X116752235Y-106951843D01*
X116542191Y-107092191D01*
X116401843Y-107302235D01*
X116352560Y-107550000D01*
X116352560Y-108050000D01*
X116401843Y-108297765D01*
X116462873Y-108389102D01*
X116461673Y-108390302D01*
X116365000Y-108623691D01*
X116365000Y-108716250D01*
X116523750Y-108875000D01*
X117673000Y-108875000D01*
X117673000Y-108853000D01*
X117927000Y-108853000D01*
X117927000Y-108875000D01*
X117947000Y-108875000D01*
X117947000Y-109125000D01*
X117927000Y-109125000D01*
X117927000Y-109147000D01*
X117673000Y-109147000D01*
X117673000Y-109125000D01*
X116523750Y-109125000D01*
X116365000Y-109283750D01*
X116365000Y-109376309D01*
X116461673Y-109609698D01*
X116462873Y-109610898D01*
X116401843Y-109702235D01*
X116352560Y-109950000D01*
X116352560Y-110450000D01*
X116401843Y-110697765D01*
X116542191Y-110907809D01*
X116752235Y-111048157D01*
X117000000Y-111097440D01*
X118600000Y-111097440D01*
X118847765Y-111048157D01*
X119053033Y-110911000D01*
X119129979Y-110911000D01*
X119174578Y-110919871D01*
X119249733Y-111101312D01*
X119498688Y-111350267D01*
X119823963Y-111485000D01*
X120160516Y-111485000D01*
X120152560Y-111525000D01*
X120152560Y-111775000D01*
X120177424Y-111900000D01*
X120152560Y-112025000D01*
X120152560Y-112275000D01*
X120177424Y-112400000D01*
X120169666Y-112439000D01*
X119744506Y-112439000D01*
X119452269Y-112146764D01*
X119412602Y-112087398D01*
X119177418Y-111930253D01*
X118970026Y-111889000D01*
X118970021Y-111889000D01*
X118900000Y-111875072D01*
X118829979Y-111889000D01*
X115462579Y-111889000D01*
X115650267Y-111701312D01*
X115785000Y-111376037D01*
X115785000Y-111023963D01*
X115650267Y-110698688D01*
X115401312Y-110449733D01*
X115076037Y-110315000D01*
X114775000Y-110315000D01*
X114775000Y-109981248D01*
X114791161Y-109900001D01*
X114775000Y-109818753D01*
X114775000Y-109503848D01*
X114798157Y-109469191D01*
X114847440Y-109221426D01*
X114847440Y-108321426D01*
X114798157Y-108073661D01*
X114775000Y-108039004D01*
X114775000Y-107185000D01*
X114976037Y-107185000D01*
X115301312Y-107050267D01*
X115550267Y-106801312D01*
X115685000Y-106476037D01*
X115685000Y-106123963D01*
X115550267Y-105798688D01*
X115462579Y-105711000D01*
X119459421Y-105711000D01*
X119498688Y-105750267D01*
X119498688Y-105750267D01*
G37*
X119498688Y-105750267D02*
X119530890Y-105763605D01*
X119446762Y-105847733D01*
X119387398Y-105887399D01*
X119347733Y-105946762D01*
X119347732Y-105946763D01*
X119312160Y-106000000D01*
X119230253Y-106122583D01*
X119189000Y-106329975D01*
X119189000Y-106329979D01*
X119175072Y-106400000D01*
X119189000Y-106470021D01*
X119189001Y-107206146D01*
X119089552Y-107139697D01*
X119057809Y-107092191D01*
X118847765Y-106951843D01*
X118600000Y-106902560D01*
X117000000Y-106902560D01*
X116752235Y-106951843D01*
X116542191Y-107092191D01*
X116401843Y-107302235D01*
X116352560Y-107550000D01*
X116352560Y-108050000D01*
X116401843Y-108297765D01*
X116462873Y-108389102D01*
X116461673Y-108390302D01*
X116365000Y-108623691D01*
X116365000Y-108716250D01*
X116523750Y-108875000D01*
X117673000Y-108875000D01*
X117673000Y-108853000D01*
X117927000Y-108853000D01*
X117927000Y-108875000D01*
X117947000Y-108875000D01*
X117947000Y-109125000D01*
X117927000Y-109125000D01*
X117927000Y-109147000D01*
X117673000Y-109147000D01*
X117673000Y-109125000D01*
X116523750Y-109125000D01*
X116365000Y-109283750D01*
X116365000Y-109376309D01*
X116461673Y-109609698D01*
X116462873Y-109610898D01*
X116401843Y-109702235D01*
X116352560Y-109950000D01*
X116352560Y-110450000D01*
X116401843Y-110697765D01*
X116542191Y-110907809D01*
X116752235Y-111048157D01*
X117000000Y-111097440D01*
X118600000Y-111097440D01*
X118847765Y-111048157D01*
X119053033Y-110911000D01*
X119129979Y-110911000D01*
X119174578Y-110919871D01*
X119249733Y-111101312D01*
X119498688Y-111350267D01*
X119823963Y-111485000D01*
X120160516Y-111485000D01*
X120152560Y-111525000D01*
X120152560Y-111775000D01*
X120177424Y-111900000D01*
X120152560Y-112025000D01*
X120152560Y-112275000D01*
X120177424Y-112400000D01*
X120169666Y-112439000D01*
X119744506Y-112439000D01*
X119452269Y-112146764D01*
X119412602Y-112087398D01*
X119177418Y-111930253D01*
X118970026Y-111889000D01*
X118970021Y-111889000D01*
X118900000Y-111875072D01*
X118829979Y-111889000D01*
X115462579Y-111889000D01*
X115650267Y-111701312D01*
X115785000Y-111376037D01*
X115785000Y-111023963D01*
X115650267Y-110698688D01*
X115401312Y-110449733D01*
X115076037Y-110315000D01*
X114775000Y-110315000D01*
X114775000Y-109981248D01*
X114791161Y-109900001D01*
X114775000Y-109818753D01*
X114775000Y-109503848D01*
X114798157Y-109469191D01*
X114847440Y-109221426D01*
X114847440Y-108321426D01*
X114798157Y-108073661D01*
X114775000Y-108039004D01*
X114775000Y-107185000D01*
X114976037Y-107185000D01*
X115301312Y-107050267D01*
X115550267Y-106801312D01*
X115685000Y-106476037D01*
X115685000Y-106123963D01*
X115550267Y-105798688D01*
X115462579Y-105711000D01*
X119459421Y-105711000D01*
X119498688Y-105750267D01*
G36*
X136112191Y-109332809D02*
X136322235Y-109473157D01*
X136570000Y-109522440D01*
X136575931Y-109522440D01*
X136587398Y-109539601D01*
X136646762Y-109579267D01*
X136946622Y-109879128D01*
X136877000Y-109948750D01*
X136877000Y-110673000D01*
X137626250Y-110673000D01*
X137683372Y-110615878D01*
X138134110Y-111066616D01*
X138133726Y-111067191D01*
X138061690Y-111175000D01*
X137785000Y-111175000D01*
X137785000Y-111085750D01*
X137626250Y-110927000D01*
X136877000Y-110927000D01*
X136877000Y-110947000D01*
X136623000Y-110947000D01*
X136623000Y-110927000D01*
X136603000Y-110927000D01*
X136603000Y-110673000D01*
X136623000Y-110673000D01*
X136623000Y-109948750D01*
X136464250Y-109790000D01*
X136223691Y-109790000D01*
X135990302Y-109886673D01*
X135989102Y-109887873D01*
X135897765Y-109826843D01*
X135650000Y-109777560D01*
X135154946Y-109777560D01*
X135353240Y-109579266D01*
X135412601Y-109539602D01*
X135424068Y-109522440D01*
X135430000Y-109522440D01*
X135677765Y-109473157D01*
X135887809Y-109332809D01*
X136000000Y-109164905D01*
X136112191Y-109332809D01*
X136112191Y-109332809D01*
G37*
X136112191Y-109332809D02*
X136322235Y-109473157D01*
X136570000Y-109522440D01*
X136575931Y-109522440D01*
X136587398Y-109539601D01*
X136646762Y-109579267D01*
X136946622Y-109879128D01*
X136877000Y-109948750D01*
X136877000Y-110673000D01*
X137626250Y-110673000D01*
X137683372Y-110615878D01*
X138134110Y-111066616D01*
X138133726Y-111067191D01*
X138061690Y-111175000D01*
X137785000Y-111175000D01*
X137785000Y-111085750D01*
X137626250Y-110927000D01*
X136877000Y-110927000D01*
X136877000Y-110947000D01*
X136623000Y-110947000D01*
X136623000Y-110927000D01*
X136603000Y-110927000D01*
X136603000Y-110673000D01*
X136623000Y-110673000D01*
X136623000Y-109948750D01*
X136464250Y-109790000D01*
X136223691Y-109790000D01*
X135990302Y-109886673D01*
X135989102Y-109887873D01*
X135897765Y-109826843D01*
X135650000Y-109777560D01*
X135154946Y-109777560D01*
X135353240Y-109579266D01*
X135412601Y-109539602D01*
X135424068Y-109522440D01*
X135430000Y-109522440D01*
X135677765Y-109473157D01*
X135887809Y-109332809D01*
X136000000Y-109164905D01*
X136112191Y-109332809D01*
G36*
X101401843Y-100752235D02*
X101352560Y-101000000D01*
X101352560Y-101800000D01*
X101401843Y-102047765D01*
X101542191Y-102257809D01*
X101752235Y-102398157D01*
X101856914Y-102418979D01*
X101887399Y-102464602D01*
X101946762Y-102504267D01*
X102495732Y-103053238D01*
X102535398Y-103112602D01*
X102594761Y-103152267D01*
X102594762Y-103152268D01*
X102649736Y-103189000D01*
X102770582Y-103269747D01*
X102977974Y-103311000D01*
X102977978Y-103311000D01*
X103047999Y-103324928D01*
X103118020Y-103311000D01*
X106744633Y-103311000D01*
X106615000Y-103623963D01*
X106615000Y-103976037D01*
X106749733Y-104301312D01*
X106998688Y-104550267D01*
X107323963Y-104685000D01*
X107490263Y-104685000D01*
X107557142Y-104698303D01*
X107624021Y-104685000D01*
X107676037Y-104685000D01*
X107682937Y-104682142D01*
X107736859Y-104682142D01*
X107792191Y-104764951D01*
X108002235Y-104905299D01*
X108250000Y-104954582D01*
X108750000Y-104954582D01*
X108997765Y-104905299D01*
X109207809Y-104764951D01*
X109250000Y-104701808D01*
X109284371Y-104753248D01*
X109275072Y-104800000D01*
X109289001Y-104870026D01*
X109298947Y-104920026D01*
X109330254Y-105077418D01*
X109447732Y-105253237D01*
X109447734Y-105253239D01*
X109470510Y-105287325D01*
X109292191Y-105406475D01*
X109250000Y-105469618D01*
X109207809Y-105406475D01*
X108997765Y-105266127D01*
X108750000Y-105216844D01*
X108250000Y-105216844D01*
X108002235Y-105266127D01*
X107792191Y-105406475D01*
X107714332Y-105522999D01*
X105739541Y-105522999D01*
X105841476Y-105276890D01*
X105720155Y-105047000D01*
X104527000Y-105047000D01*
X104527000Y-105067000D01*
X104273000Y-105067000D01*
X104273000Y-105047000D01*
X101987000Y-105047000D01*
X101987000Y-105067000D01*
X101733000Y-105067000D01*
X101733000Y-105047000D01*
X101713000Y-105047000D01*
X101713000Y-104793000D01*
X101733000Y-104793000D01*
X101733000Y-103599181D01*
X101987000Y-103599181D01*
X101987000Y-104793000D01*
X104273000Y-104793000D01*
X104273000Y-103599181D01*
X104527000Y-103599181D01*
X104527000Y-104793000D01*
X105720155Y-104793000D01*
X105841476Y-104563110D01*
X105671645Y-104153076D01*
X105281358Y-103724817D01*
X104756892Y-103478514D01*
X104527000Y-103599181D01*
X104273000Y-103599181D01*
X104043108Y-103478514D01*
X103518642Y-103724817D01*
X103130000Y-104151271D01*
X102741358Y-103724817D01*
X102216892Y-103478514D01*
X101987000Y-103599181D01*
X101733000Y-103599181D01*
X101503108Y-103478514D01*
X100978642Y-103724817D01*
X100710000Y-104019596D01*
X100710000Y-100710000D01*
X101430064Y-100710000D01*
X101401843Y-100752235D01*
X101401843Y-100752235D01*
G37*
X101401843Y-100752235D02*
X101352560Y-101000000D01*
X101352560Y-101800000D01*
X101401843Y-102047765D01*
X101542191Y-102257809D01*
X101752235Y-102398157D01*
X101856914Y-102418979D01*
X101887399Y-102464602D01*
X101946762Y-102504267D01*
X102495732Y-103053238D01*
X102535398Y-103112602D01*
X102594761Y-103152267D01*
X102594762Y-103152268D01*
X102649736Y-103189000D01*
X102770582Y-103269747D01*
X102977974Y-103311000D01*
X102977978Y-103311000D01*
X103047999Y-103324928D01*
X103118020Y-103311000D01*
X106744633Y-103311000D01*
X106615000Y-103623963D01*
X106615000Y-103976037D01*
X106749733Y-104301312D01*
X106998688Y-104550267D01*
X107323963Y-104685000D01*
X107490263Y-104685000D01*
X107557142Y-104698303D01*
X107624021Y-104685000D01*
X107676037Y-104685000D01*
X107682937Y-104682142D01*
X107736859Y-104682142D01*
X107792191Y-104764951D01*
X108002235Y-104905299D01*
X108250000Y-104954582D01*
X108750000Y-104954582D01*
X108997765Y-104905299D01*
X109207809Y-104764951D01*
X109250000Y-104701808D01*
X109284371Y-104753248D01*
X109275072Y-104800000D01*
X109289001Y-104870026D01*
X109298947Y-104920026D01*
X109330254Y-105077418D01*
X109447732Y-105253237D01*
X109447734Y-105253239D01*
X109470510Y-105287325D01*
X109292191Y-105406475D01*
X109250000Y-105469618D01*
X109207809Y-105406475D01*
X108997765Y-105266127D01*
X108750000Y-105216844D01*
X108250000Y-105216844D01*
X108002235Y-105266127D01*
X107792191Y-105406475D01*
X107714332Y-105522999D01*
X105739541Y-105522999D01*
X105841476Y-105276890D01*
X105720155Y-105047000D01*
X104527000Y-105047000D01*
X104527000Y-105067000D01*
X104273000Y-105067000D01*
X104273000Y-105047000D01*
X101987000Y-105047000D01*
X101987000Y-105067000D01*
X101733000Y-105067000D01*
X101733000Y-105047000D01*
X101713000Y-105047000D01*
X101713000Y-104793000D01*
X101733000Y-104793000D01*
X101733000Y-103599181D01*
X101987000Y-103599181D01*
X101987000Y-104793000D01*
X104273000Y-104793000D01*
X104273000Y-103599181D01*
X104527000Y-103599181D01*
X104527000Y-104793000D01*
X105720155Y-104793000D01*
X105841476Y-104563110D01*
X105671645Y-104153076D01*
X105281358Y-103724817D01*
X104756892Y-103478514D01*
X104527000Y-103599181D01*
X104273000Y-103599181D01*
X104043108Y-103478514D01*
X103518642Y-103724817D01*
X103130000Y-104151271D01*
X102741358Y-103724817D01*
X102216892Y-103478514D01*
X101987000Y-103599181D01*
X101733000Y-103599181D01*
X101503108Y-103478514D01*
X100978642Y-103724817D01*
X100710000Y-104019596D01*
X100710000Y-100710000D01*
X101430064Y-100710000D01*
X101401843Y-100752235D01*
G36*
X138953450Y-100775000D02*
X135981247Y-100775000D01*
X135900000Y-100758839D01*
X135818752Y-100775000D01*
X135818749Y-100775000D01*
X135578101Y-100822868D01*
X135305209Y-101005209D01*
X135259184Y-101074090D01*
X134724092Y-101609183D01*
X134655209Y-101655209D01*
X134472868Y-101928102D01*
X134425000Y-102168750D01*
X134425000Y-102168753D01*
X134408839Y-102250000D01*
X134425000Y-102331248D01*
X134425000Y-102975000D01*
X133841726Y-102975000D01*
X133340817Y-102474092D01*
X133294791Y-102405209D01*
X133021899Y-102222868D01*
X132781251Y-102175000D01*
X132781247Y-102175000D01*
X132700000Y-102158839D01*
X132618753Y-102175000D01*
X131613027Y-102175000D01*
X131607809Y-102167191D01*
X131397765Y-102026843D01*
X131150000Y-101977560D01*
X130350000Y-101977560D01*
X130102235Y-102026843D01*
X130010898Y-102087873D01*
X130009698Y-102086673D01*
X129776309Y-101990000D01*
X129535750Y-101990000D01*
X129377000Y-102148750D01*
X129377000Y-102873000D01*
X129397000Y-102873000D01*
X129397000Y-103127000D01*
X129377000Y-103127000D01*
X129377000Y-103851250D01*
X129535750Y-104010000D01*
X129776309Y-104010000D01*
X129915000Y-103952552D01*
X129915000Y-104176037D01*
X130049733Y-104501312D01*
X130298688Y-104750267D01*
X130623963Y-104885000D01*
X130976037Y-104885000D01*
X131301312Y-104750267D01*
X131550267Y-104501312D01*
X131685000Y-104176037D01*
X131685000Y-103825000D01*
X132358275Y-103825000D01*
X132859183Y-104325909D01*
X132905209Y-104394791D01*
X132974090Y-104440816D01*
X133062352Y-104499791D01*
X133178101Y-104577132D01*
X133418749Y-104625000D01*
X133418752Y-104625000D01*
X133457167Y-104632641D01*
X133447732Y-104646763D01*
X132755495Y-105339000D01*
X129310306Y-105339000D01*
X129273157Y-105152235D01*
X129132809Y-104942191D01*
X128922765Y-104801843D01*
X128675000Y-104752560D01*
X128425000Y-104752560D01*
X128300000Y-104777424D01*
X128175000Y-104752560D01*
X127925000Y-104752560D01*
X127800000Y-104777424D01*
X127675000Y-104752560D01*
X127425000Y-104752560D01*
X127300000Y-104777424D01*
X127175000Y-104752560D01*
X126952801Y-104752560D01*
X127012602Y-104712602D01*
X127052269Y-104653236D01*
X127203238Y-104502267D01*
X127262601Y-104462602D01*
X127419747Y-104227418D01*
X127461000Y-104020026D01*
X127461000Y-104020021D01*
X127474928Y-103950001D01*
X127464534Y-103897745D01*
X127598157Y-103697765D01*
X127647440Y-103450000D01*
X127647440Y-103285750D01*
X128215000Y-103285750D01*
X128215000Y-103501310D01*
X128311673Y-103734699D01*
X128490302Y-103913327D01*
X128723691Y-104010000D01*
X128964250Y-104010000D01*
X129123000Y-103851250D01*
X129123000Y-103127000D01*
X128373750Y-103127000D01*
X128215000Y-103285750D01*
X127647440Y-103285750D01*
X127647440Y-102550000D01*
X127637234Y-102498690D01*
X128215000Y-102498690D01*
X128215000Y-102714250D01*
X128373750Y-102873000D01*
X129123000Y-102873000D01*
X129123000Y-102148750D01*
X128964250Y-101990000D01*
X128723691Y-101990000D01*
X128490302Y-102086673D01*
X128311673Y-102265301D01*
X128215000Y-102498690D01*
X127637234Y-102498690D01*
X127598157Y-102302235D01*
X127457809Y-102092191D01*
X127247765Y-101951843D01*
X127000000Y-101902560D01*
X126500000Y-101902560D01*
X126252235Y-101951843D01*
X126042191Y-102092191D01*
X126001346Y-102153320D01*
X125859698Y-102011673D01*
X125626309Y-101915000D01*
X125533750Y-101915000D01*
X125375000Y-102073750D01*
X125375000Y-102873000D01*
X125397000Y-102873000D01*
X125397000Y-103127000D01*
X125375000Y-103127000D01*
X125375000Y-103147000D01*
X125125000Y-103147000D01*
X125125000Y-103127000D01*
X124523750Y-103127000D01*
X124365000Y-103285750D01*
X124365000Y-103576310D01*
X124461673Y-103809699D01*
X124640302Y-103988327D01*
X124873691Y-104085000D01*
X124966250Y-104085000D01*
X125122998Y-103928252D01*
X125122998Y-104085000D01*
X125207495Y-104085000D01*
X124596762Y-104695733D01*
X124537399Y-104735398D01*
X124525932Y-104752560D01*
X124425000Y-104752560D01*
X124300000Y-104777424D01*
X124175000Y-104752560D01*
X123925000Y-104752560D01*
X123821148Y-104773217D01*
X123801310Y-104765000D01*
X123771250Y-104765000D01*
X123748603Y-104787647D01*
X123677235Y-104801843D01*
X123550000Y-104886859D01*
X123422765Y-104801843D01*
X123351397Y-104787647D01*
X123328750Y-104765000D01*
X123298690Y-104765000D01*
X123278852Y-104773217D01*
X123175000Y-104752560D01*
X122925000Y-104752560D01*
X122677235Y-104801843D01*
X122467191Y-104942191D01*
X122326843Y-105152235D01*
X122322315Y-105175000D01*
X122225000Y-105175000D01*
X122225000Y-104010000D01*
X122464250Y-104010000D01*
X122623000Y-103851250D01*
X122623000Y-103127000D01*
X122877000Y-103127000D01*
X122877000Y-103851250D01*
X123035750Y-104010000D01*
X123276309Y-104010000D01*
X123509698Y-103913327D01*
X123688327Y-103734699D01*
X123785000Y-103501310D01*
X123785000Y-103285750D01*
X123626250Y-103127000D01*
X122877000Y-103127000D01*
X122623000Y-103127000D01*
X122603000Y-103127000D01*
X122603000Y-102873000D01*
X122623000Y-102873000D01*
X122623000Y-102148750D01*
X122877000Y-102148750D01*
X122877000Y-102873000D01*
X123626250Y-102873000D01*
X123785000Y-102714250D01*
X123785000Y-102498690D01*
X123753934Y-102423690D01*
X124365000Y-102423690D01*
X124365000Y-102714250D01*
X124523750Y-102873000D01*
X125125000Y-102873000D01*
X125125000Y-102073750D01*
X124966250Y-101915000D01*
X124873691Y-101915000D01*
X124640302Y-102011673D01*
X124461673Y-102190301D01*
X124365000Y-102423690D01*
X123753934Y-102423690D01*
X123688327Y-102265301D01*
X123509698Y-102086673D01*
X123276309Y-101990000D01*
X123035750Y-101990000D01*
X122877000Y-102148750D01*
X122623000Y-102148750D01*
X122464250Y-101990000D01*
X122223691Y-101990000D01*
X122071847Y-102052896D01*
X122027132Y-101828101D01*
X121890816Y-101624089D01*
X121890814Y-101624087D01*
X121844791Y-101555209D01*
X121775913Y-101509186D01*
X121025909Y-100759184D01*
X120952300Y-100710000D01*
X138996882Y-100710000D01*
X138953450Y-100775000D01*
X138953450Y-100775000D01*
G37*
X138953450Y-100775000D02*
X135981247Y-100775000D01*
X135900000Y-100758839D01*
X135818752Y-100775000D01*
X135818749Y-100775000D01*
X135578101Y-100822868D01*
X135305209Y-101005209D01*
X135259184Y-101074090D01*
X134724092Y-101609183D01*
X134655209Y-101655209D01*
X134472868Y-101928102D01*
X134425000Y-102168750D01*
X134425000Y-102168753D01*
X134408839Y-102250000D01*
X134425000Y-102331248D01*
X134425000Y-102975000D01*
X133841726Y-102975000D01*
X133340817Y-102474092D01*
X133294791Y-102405209D01*
X133021899Y-102222868D01*
X132781251Y-102175000D01*
X132781247Y-102175000D01*
X132700000Y-102158839D01*
X132618753Y-102175000D01*
X131613027Y-102175000D01*
X131607809Y-102167191D01*
X131397765Y-102026843D01*
X131150000Y-101977560D01*
X130350000Y-101977560D01*
X130102235Y-102026843D01*
X130010898Y-102087873D01*
X130009698Y-102086673D01*
X129776309Y-101990000D01*
X129535750Y-101990000D01*
X129377000Y-102148750D01*
X129377000Y-102873000D01*
X129397000Y-102873000D01*
X129397000Y-103127000D01*
X129377000Y-103127000D01*
X129377000Y-103851250D01*
X129535750Y-104010000D01*
X129776309Y-104010000D01*
X129915000Y-103952552D01*
X129915000Y-104176037D01*
X130049733Y-104501312D01*
X130298688Y-104750267D01*
X130623963Y-104885000D01*
X130976037Y-104885000D01*
X131301312Y-104750267D01*
X131550267Y-104501312D01*
X131685000Y-104176037D01*
X131685000Y-103825000D01*
X132358275Y-103825000D01*
X132859183Y-104325909D01*
X132905209Y-104394791D01*
X132974090Y-104440816D01*
X133062352Y-104499791D01*
X133178101Y-104577132D01*
X133418749Y-104625000D01*
X133418752Y-104625000D01*
X133457167Y-104632641D01*
X133447732Y-104646763D01*
X132755495Y-105339000D01*
X129310306Y-105339000D01*
X129273157Y-105152235D01*
X129132809Y-104942191D01*
X128922765Y-104801843D01*
X128675000Y-104752560D01*
X128425000Y-104752560D01*
X128300000Y-104777424D01*
X128175000Y-104752560D01*
X127925000Y-104752560D01*
X127800000Y-104777424D01*
X127675000Y-104752560D01*
X127425000Y-104752560D01*
X127300000Y-104777424D01*
X127175000Y-104752560D01*
X126952801Y-104752560D01*
X127012602Y-104712602D01*
X127052269Y-104653236D01*
X127203238Y-104502267D01*
X127262601Y-104462602D01*
X127419747Y-104227418D01*
X127461000Y-104020026D01*
X127461000Y-104020021D01*
X127474928Y-103950001D01*
X127464534Y-103897745D01*
X127598157Y-103697765D01*
X127647440Y-103450000D01*
X127647440Y-103285750D01*
X128215000Y-103285750D01*
X128215000Y-103501310D01*
X128311673Y-103734699D01*
X128490302Y-103913327D01*
X128723691Y-104010000D01*
X128964250Y-104010000D01*
X129123000Y-103851250D01*
X129123000Y-103127000D01*
X128373750Y-103127000D01*
X128215000Y-103285750D01*
X127647440Y-103285750D01*
X127647440Y-102550000D01*
X127637234Y-102498690D01*
X128215000Y-102498690D01*
X128215000Y-102714250D01*
X128373750Y-102873000D01*
X129123000Y-102873000D01*
X129123000Y-102148750D01*
X128964250Y-101990000D01*
X128723691Y-101990000D01*
X128490302Y-102086673D01*
X128311673Y-102265301D01*
X128215000Y-102498690D01*
X127637234Y-102498690D01*
X127598157Y-102302235D01*
X127457809Y-102092191D01*
X127247765Y-101951843D01*
X127000000Y-101902560D01*
X126500000Y-101902560D01*
X126252235Y-101951843D01*
X126042191Y-102092191D01*
X126001346Y-102153320D01*
X125859698Y-102011673D01*
X125626309Y-101915000D01*
X125533750Y-101915000D01*
X125375000Y-102073750D01*
X125375000Y-102873000D01*
X125397000Y-102873000D01*
X125397000Y-103127000D01*
X125375000Y-103127000D01*
X125375000Y-103147000D01*
X125125000Y-103147000D01*
X125125000Y-103127000D01*
X124523750Y-103127000D01*
X124365000Y-103285750D01*
X124365000Y-103576310D01*
X124461673Y-103809699D01*
X124640302Y-103988327D01*
X124873691Y-104085000D01*
X124966250Y-104085000D01*
X125122998Y-103928252D01*
X125122998Y-104085000D01*
X125207495Y-104085000D01*
X124596762Y-104695733D01*
X124537399Y-104735398D01*
X124525932Y-104752560D01*
X124425000Y-104752560D01*
X124300000Y-104777424D01*
X124175000Y-104752560D01*
X123925000Y-104752560D01*
X123821148Y-104773217D01*
X123801310Y-104765000D01*
X123771250Y-104765000D01*
X123748603Y-104787647D01*
X123677235Y-104801843D01*
X123550000Y-104886859D01*
X123422765Y-104801843D01*
X123351397Y-104787647D01*
X123328750Y-104765000D01*
X123298690Y-104765000D01*
X123278852Y-104773217D01*
X123175000Y-104752560D01*
X122925000Y-104752560D01*
X122677235Y-104801843D01*
X122467191Y-104942191D01*
X122326843Y-105152235D01*
X122322315Y-105175000D01*
X122225000Y-105175000D01*
X122225000Y-104010000D01*
X122464250Y-104010000D01*
X122623000Y-103851250D01*
X122623000Y-103127000D01*
X122877000Y-103127000D01*
X122877000Y-103851250D01*
X123035750Y-104010000D01*
X123276309Y-104010000D01*
X123509698Y-103913327D01*
X123688327Y-103734699D01*
X123785000Y-103501310D01*
X123785000Y-103285750D01*
X123626250Y-103127000D01*
X122877000Y-103127000D01*
X122623000Y-103127000D01*
X122603000Y-103127000D01*
X122603000Y-102873000D01*
X122623000Y-102873000D01*
X122623000Y-102148750D01*
X122877000Y-102148750D01*
X122877000Y-102873000D01*
X123626250Y-102873000D01*
X123785000Y-102714250D01*
X123785000Y-102498690D01*
X123753934Y-102423690D01*
X124365000Y-102423690D01*
X124365000Y-102714250D01*
X124523750Y-102873000D01*
X125125000Y-102873000D01*
X125125000Y-102073750D01*
X124966250Y-101915000D01*
X124873691Y-101915000D01*
X124640302Y-102011673D01*
X124461673Y-102190301D01*
X124365000Y-102423690D01*
X123753934Y-102423690D01*
X123688327Y-102265301D01*
X123509698Y-102086673D01*
X123276309Y-101990000D01*
X123035750Y-101990000D01*
X122877000Y-102148750D01*
X122623000Y-102148750D01*
X122464250Y-101990000D01*
X122223691Y-101990000D01*
X122071847Y-102052896D01*
X122027132Y-101828101D01*
X121890816Y-101624089D01*
X121890814Y-101624087D01*
X121844791Y-101555209D01*
X121775913Y-101509186D01*
X121025909Y-100759184D01*
X120952300Y-100710000D01*
X138996882Y-100710000D01*
X138953450Y-100775000D01*
G36*
X111415000Y-103514250D02*
X111573750Y-103673000D01*
X112323000Y-103673000D01*
X112323000Y-103653000D01*
X112577000Y-103653000D01*
X112577000Y-103673000D01*
X112597000Y-103673000D01*
X112597000Y-103927000D01*
X112577000Y-103927000D01*
X112577000Y-103947000D01*
X112323000Y-103947000D01*
X112323000Y-103927000D01*
X111573750Y-103927000D01*
X111415000Y-104085750D01*
X111415000Y-104289000D01*
X110897440Y-104289000D01*
X110897440Y-103407142D01*
X110878316Y-103311000D01*
X111415000Y-103311000D01*
X111415000Y-103514250D01*
X111415000Y-103514250D01*
G37*
X111415000Y-103514250D02*
X111573750Y-103673000D01*
X112323000Y-103673000D01*
X112323000Y-103653000D01*
X112577000Y-103653000D01*
X112577000Y-103673000D01*
X112597000Y-103673000D01*
X112597000Y-103927000D01*
X112577000Y-103927000D01*
X112577000Y-103947000D01*
X112323000Y-103947000D01*
X112323000Y-103927000D01*
X111573750Y-103927000D01*
X111415000Y-104085750D01*
X111415000Y-104289000D01*
X110897440Y-104289000D01*
X110897440Y-103407142D01*
X110878316Y-103311000D01*
X111415000Y-103311000D01*
X111415000Y-103514250D01*
M02*
